<svg width="299" height="194" viewBox="0 0 299 194" fill="none" xmlns="http://www.w3.org/2000/svg">
<path d="M86.393 188.214C74.855 185.091 65.421 176.376 61.595 164.601L30.25 68.118C28.994 64.253 28.441 60.327 28.5 56.474L8.413 70.714C-0.561 77.075 -2.697 89.622 3.664 98.597L62.334 181.355C66.22 186.837 72.415 189.767 78.693 189.767C81.298 189.767 83.918 189.251 86.393 188.214ZM24.944 92.269L17.586 88.73L16.028 89.826L20.131 95.656L16.746 98.037L6.519 83.501L9.903 81.12L13.907 86.811L15.056 86.002L14.247 78.063L18.44 75.112L18.566 84.862L29.057 89.374L24.944 92.269Z" fill="#424242"/>
<path d="M58.307 37.983C47.845 41.383 42.067 52.723 45.466 63.186L76.812 159.663C79.55 168.091 87.441 173.477 95.876 173.477C97.911 173.477 99.98 173.164 102.014 172.502L101.9 172.484C89.396 167.017 80.638 154.611 80.638 139.929V38.487C80.638 35.678 81.129 32.946 81.725 30.321L58.307 37.983ZM66.503 64.288L60.413 58.85L58.613 59.473L60.941 66.209L57.03 67.561L51.225 50.762L55.136 49.411L57.408 55.989L58.735 55.53L60.155 47.676L65.001 46.002L62.424 55.404L71.256 62.644L66.503 64.288Z" fill="#424242"/>
<path d="M96.638 38.487V139.93C96.638 150.567 104.805 158.891 115.279 159.43C112.239 156.594 109.765 153.217 107.817 149.395C103.445 140.813 102.711 131.061 105.676 121.936L137.044 25.258C137.847 22.789 138.921 21.08 140.184 18.08H116.517C105.517 18.081 96.638 27.487 96.638 38.487ZM122.326 47.081H117.297L113.317 40.081H110.639V47.081H106.639V29.081H110.639V36.081H112.817L116.723 29.081H121.85L116.344 37.239L122.326 47.081Z" fill="#424242"/>
<path d="M152.282 30.405L120.935 126.882C117.55 137.298 123.267 148.579 133.642 152.032C131.964 148.774 130.772 145.243 130.138 141.52C128.522 132.024 130.687 122.485 136.236 114.661L194.904 31.903C196.681 29.397 198.762 27.165 201.068 25.227L177.484 17.563C175.45 16.903 173.382 16.588 171.346 16.588C162.911 16.589 155.02 21.978 152.282 30.405ZM173.695 47.462L169.799 46.028L170.04 42.436L164.782 40.502L162.65 43.398L158.754 41.964L170.275 27.265L174.434 28.794L173.695 47.462Z" fill="#424242"/>
<path d="M170.277 39.142L170.731 32.532L170.664 32.507L166.738 37.839L170.277 39.142Z" fill="#424242"/>
<path d="M289.75 74.6281L235.84 36.409C232.349 33.933 228.316 32.7451 224.317 32.7451C218.04 32.7451 211.844 35.6751 207.958 41.1571L149.29 123.913C142.928 132.888 145.064 145.434 154.038 151.796L207.947 190.015C211.438 192.492 215.471 193.679 219.47 193.679C225.748 193.679 231.943 190.749 235.829 185.267L294.498 102.511C300.86 93.5361 298.723 80.9891 289.75 74.6281ZM224.689 40.9831L228.302 43.5491L222.702 61.3691L219.317 58.9671L220.491 55.5631L215.922 52.3191L213.106 54.5591L209.721 52.1551L224.689 40.9831ZM241.296 85.437C260.976 133.921 236.487 147.289 224.802 143.572C218.131 141.451 215.158 136.945 214.105 131.83L206.505 144.437L197.081 137.749L206.052 126.921C201.029 127.46 195.938 125.62 191.861 120.192C184.498 110.386 189.035 82.858 241.296 85.437Z" fill="#424242"/>
<path d="M221.582 52.444L223.751 46.185L223.691 46.144L218.507 50.261L221.582 52.444Z" fill="#424242"/>
</svg>
