<svg width="1600" height="1200" xmlns="http://www.w3.org/2000/svg"><g transform="translate(-590 -735)" fill="none"><path fill="#F83C1E" d="m1379.793 1501.483 940.521 877.05-924.107 990.984-940.521-877.05z"/><path d="M896 1101.565c-143.042 0-259-115.958-259-259 0-137.05 106.76-250.154 242.924-258.508 16.537-1.014 30.766 11.57 31.78 28.107 1.015 16.537-11.569 30.766-28.106 31.78C779.038 650.36 697 737.275 697 842.566c0 109.905 89.095 199 199 199 16.569 0 30 13.432 30 30 0 16.569-13.431 30-30 30Z" fill="#423783"/><path fill="#2C99B0" d="m1884.762 206.631 1212.584 1130.754-924.108 990.984L960.654 1197.615z"/><path d="M966.233 1594.781c-15.874 7.119-34.513.022-41.632-15.852s-.021-34.513 15.852-41.632c97.494-43.723 182.283-112.088 245.923-197.917 8.739-11.785 24.456-15.977 37.902-10.109 19.907 8.687 41.467 13.229 63.722 13.229 88.09 0 159.5-71.41 159.5-159.5 0-57.756-30.93-110.084-80.105-138.372-25.33-14.572-18.889-52.786 9.818-58.25C1539.37 955.516 1658.5 813.077 1658.5 646c0-191.367-155.133-346.5-346.5-346.5-105.17 0-202.563 47.102-268.013 126.866-11.035 13.449-30.884 15.405-44.333 4.37-13.449-11.035-15.405-30.884-4.37-44.333C1072.576 292.207 1187.763 236.5 1312 236.5c226.16 0 409.5 183.34 409.5 409.5 0 197.465-140.765 365.773-332.508 402.268l9.818-58.25c68.521 39.418 111.69 112.452 111.69 192.982 0 122.883-99.617 222.5-222.5 222.5-30.967 0-61.101-6.348-88.92-18.487l12.6-28.871 25.302 18.762c-70.051 94.474-163.379 169.725-270.749 217.877Zm69.496-1215.476c14.955 8.888 19.874 28.217 10.986 43.172-8.888 14.956-28.217 19.874-43.172 10.987C908.238 376.824 799.377 346.5 686 346.5c-343.8 0-622.5 278.706-622.5 622.52 0 8.177.158 16.335.472 24.47.672 17.384-12.875 32.021-30.26 32.693-17.383.672-32.02-12.876-32.693-30.26A696.485 696.485 0 0 1 .5 969.021C.5 590.412 307.405 283.5 686 283.5c124.784 0 244.751 33.419 349.729 95.805Z" fill="#D0E215"/><path d="M2112.314 1368c377.763 0 684-306.237 684-684s-306.237-684-684-684c-109.84 0-216.023 25.937-311.67 74.979-14.743 7.56-20.567 25.64-13.008 40.383 7.56 14.743 25.64 20.567 40.384 13.008C1915.243 83.647 2012.05 60 2112.314 60c344.626 0 624 279.374 624 624s-279.374 624-624 624c-16.568 0-30 13.431-30 30 0 16.569 13.432 30 30 30Zm-449.016-168.002C1786.92 1307.66 1944.983 1368 2112.314 1368c16.569 0 30-13.431 30-30 0-16.569-13.431-30-30-30-152.706 0-296.81-55.012-409.611-153.249-12.495-10.881-31.444-9.574-42.326 2.92-10.881 12.495-9.574 31.445 2.921 42.327Z" fill="#E95272"/><path fill="#F6B800" d="m1696.193 1467.83 940.521 877.05-336.907 361.29-940.521-877.05z"/><circle fill="#423783" cx="611" cy="1434" r="250"/><circle fill="#2C99B0" cx="954" cy="1565" r="28"/><path d="M1944.845 1113.164c-13.278 13.278-34.806 13.278-48.084 0-13.277-13.278-13.277-34.805 0-48.083 13.278-13.278 34.806-13.278 48.084 0 13.277 13.278 13.277 34.805 0 48.083Zm88.28-103.945c-13.278 13.278-34.806 13.278-48.083 0-13.278-13.278-13.278-34.805 0-48.083 13.277-13.278 34.805-13.278 48.083 0 13.278 13.278 13.278 34.805 0 48.083Zm108.187-108.187c-13.278 13.278-34.805 13.278-48.083 0-13.278-13.278-13.278-34.805 0-48.083 13.278-13.278 34.805-13.278 48.083 0 13.278 13.278 13.278 34.805 0 48.083Zm115.73-115.99c-13.278 13.277-34.806 13.277-48.084 0-13.277-13.278-13.277-34.806 0-48.084 13.278-13.277 34.806-13.277 48.084 0 13.277 13.278 13.277 34.806 0 48.084Zm-235.123 405.197c-6.639 6.639-17.402 6.639-24.041 0-6.64-6.64-6.64-17.403 0-24.042 6.639-6.639 17.402-6.639 24.041 0 6.64 6.639 6.64 17.403 0 24.042Zm106.773-106.773c-6.639 6.638-17.402 6.638-24.041 0-6.64-6.64-6.64-17.403 0-24.042 6.639-6.639 17.402-6.639 24.041 0 6.64 6.639 6.64 17.403 0 24.042Zm106.774-106.774c-6.64 6.64-17.403 6.64-24.042 0-6.639-6.639-6.639-17.402 0-24.041 6.639-6.64 17.403-6.64 24.042 0 6.638 6.639 6.638 17.402 0 24.041Zm106.555-106.671c-6.64 6.639-17.403 6.639-24.042 0-6.639-6.64-6.639-17.403 0-24.042 6.64-6.639 17.403-6.639 24.042 0 6.639 6.64 6.639 17.403 0 24.042Z" fill="#FFEAAB"/></g></svg>