<svg width="1586" height="1199" xmlns="http://www.w3.org/2000/svg"><g fill="none" fill-rule="evenodd"><path d="M1544.29 477.29c0-19.012-15.404-34.425-34.415-34.425-19.012 0-34.416 15.413-34.416 34.426 0 19.012 15.404 34.426 34.416 34.426 19.01 0 34.415-15.414 34.415-34.426Zm-34.415-75.736c41.822 0 75.714 33.908 75.714 75.737 0 41.828-33.892 75.737-75.714 75.737-41.823 0-75.715-33.909-75.715-75.737 0-41.829 33.892-75.737 75.715-75.737Z" fill="#FD6234"/><path d="M1508.401 497.625c-11.383 0-20.622-9.236-20.622-20.629 0-11.392 9.239-20.629 20.622-20.629 11.384 0 20.623 9.237 20.623 20.63 0 11.392-9.239 20.628-20.623 20.628Z" fill="#463C74"/><path d="M243.937 1178.96c0-11.392 9.233-20.628 20.622-20.628h123.737c11.389 0 20.622 9.236 20.622 20.629 0 11.392-9.233 20.628-20.622 20.628H264.559c-11.389 0-20.622-9.236-20.622-20.628Z" fill="#FFC735"/><path d="M450.164 664.128c0 41.828-33.855 75.736-75.617 75.736H237.063c-41.763 0-75.617-33.908-75.617-75.736 0-41.829 33.854-75.737 75.617-75.737h137.484c41.762 0 75.617 33.908 75.617 75.737Zm-75.617 34.425c18.983 0 34.371-15.413 34.371-34.425 0-19.013-15.388-34.426-34.37-34.426H237.062c-18.983 0-34.372 15.413-34.372 34.426 0 19.012 15.39 34.425 34.372 34.425h137.484ZM83.67 1090.552c0 11.393 9.235 20.629 20.628 20.629h63.949c21.674 0 41.219-9.117 55.01-23.725 13.791 14.608 33.336 23.725 55.01 23.725h63.262c41.774 0 75.638-33.864 75.638-75.639 0-11.392-9.236-20.628-20.628-20.628-11.393 0-20.63 9.236-20.63 20.628 0 18.988-15.392 34.381-34.38 34.381h-63.262c-18.988 0-34.381-15.393-34.381-34.38v-138.9c0-41.015-33.25-74.264-74.264-74.264v41.258c18.23 0 33.006 14.777 33.006 33.005v138.9c0 18.988-15.393 34.381-34.381 34.381h-63.95c-11.392 0-20.628 9.237-20.628 20.63Z" fill="#B4D51E"/><path d="M351.47 924.29c19.006 0 34.415-15.413 34.415-34.426 0-19.012-15.409-34.425-34.416-34.425-19.007 0-34.415 15.413-34.415 34.425 0 11.408-9.246 20.656-20.65 20.656-11.404 0-20.65-9.248-20.65-20.656 0-41.828 33.899-75.736 75.715-75.736 41.817 0 75.715 33.908 75.715 75.736 0 41.83-33.898 75.737-75.715 75.737-11.404 0-20.65-9.248-20.65-20.655 0-11.408 9.246-20.656 20.65-20.656Zm-48.55-280.496c25.385 0 45.796-20.41 45.796-45.383 0-24.973-20.411-45.383-45.796-45.383-14.023 0-26.537 6.218-34.956 16.062-7.413 8.667-20.462 9.697-29.146 2.301-8.686-7.396-9.718-20.417-2.306-29.082 15.966-18.668 39.813-30.539 66.408-30.539 48.037 0 87.143 38.698 87.143 86.64 0 47.943-39.106 86.641-87.143 86.641-11.417 0-20.674-9.236-20.674-20.629 0-11.392 9.257-20.628 20.674-20.628Z" fill="#E5E0D5" fill-rule="nonzero"/><path d="M630.937 112.952c13.44-13.408 13.44-35.146 0-48.553-13.44-13.407-35.231-13.407-48.671 0-13.44 13.407-13.44 35.145 0 48.553 8.064 8.044 8.064 21.087 0 29.13-8.065 8.045-21.14 8.045-29.203 0-29.569-29.495-29.569-77.318 0-106.814 29.568-29.497 77.508-29.497 107.076 0 29.57 29.496 29.57 77.319 0 106.814-8.064 8.045-21.138 8.045-29.202 0-8.065-8.043-8.065-21.086 0-29.13Z" fill="#463C74"/><path d="M554.014 113.49c8.054-8.056 21.111-8.056 29.165 0 8.054 8.056 8.054 21.117 0 29.173-8.054 8.056-21.11 8.056-29.165 0-8.053-8.056-8.053-21.117 0-29.173ZM169.695 863.637c-11.389 0-20.623-9.237-20.623-20.63 0-11.392 9.234-20.628 20.623-20.628 11.39 0 20.623 9.236 20.623 20.629 0 11.392-9.234 20.629-20.623 20.629Z" fill="#FD6234"/><path d="M110.72 929.943c0-19.013-15.409-34.426-34.416-34.426-19.007 0-34.416 15.413-34.416 34.426s15.409 34.426 34.416 34.426c19.007 0 34.416-15.413 34.416-34.426Zm-34.416-75.737c41.816 0 75.715 33.908 75.715 75.737 0 41.829-33.899 75.737-75.715 75.737S.589 971.772.589 929.943c0-41.829 33.899-75.737 75.715-75.737Z" fill="#FFC735"/><path d="M139.645 752.286c-23.483 0-42.52 19.107-42.52 42.678v79.849c0 11.405-9.212 20.65-20.575 20.65s-20.574-9.245-20.574-20.65v-79.85c0-46.38 37.46-83.979 83.669-83.979v41.302Z" fill="#E5E0D5" fill-rule="nonzero"/><path d="M76.599 895.464c-11.39 0-20.623-9.236-20.623-20.629s9.233-20.629 20.623-20.629 20.622 9.236 20.622 20.629-9.233 20.629-20.622 20.629Zm-.589 54.813c-11.39 0-20.623-9.236-20.623-20.629 0-11.392 9.233-20.628 20.622-20.628 11.39 0 20.623 9.236 20.623 20.628 0 11.393-9.233 20.629-20.623 20.629Z" fill="#FD6234"/><path d="M80.178 538.24c19.033-.247 34.262-15.86 34.014-34.871-.247-19.012-15.878-34.224-34.91-33.977-11.42.15-20.799-8.978-20.947-20.386-.15-11.406 8.988-20.774 20.408-20.923 41.874-.544 76.26 32.922 76.804 74.749.545 41.826-32.958 76.172-74.831 76.716-11.42.149-20.799-8.978-20.947-20.386-.149-11.406 8.989-20.774 20.409-20.922Zm100.46 148.02c-19.018 0-34.435 15.405-34.435 34.407 0 19.002 15.417 34.406 34.435 34.406 75.31 0 136.362 61.001 136.362 136.25 0 11.4-9.25 20.644-20.66 20.644-11.411 0-20.662-9.243-20.662-20.644 0-52.447-42.55-94.962-95.04-94.962-41.84 0-75.757-33.89-75.757-75.694 0-41.806 33.917-75.695 75.757-75.695 11.41 0 20.66 9.243 20.66 20.644 0 11.401-9.25 20.644-20.66 20.644Z" fill="#FFC735"/><path d="M486.052 1035.78c0-18.948-15.408-34.31-34.415-34.31-19.008 0-34.416 15.362-34.416 34.31 0 11.37-9.246 20.587-20.65 20.587-11.404 0-20.65-9.217-20.65-20.586 0-41.69 33.9-75.484 75.716-75.484 41.816 0 75.714 33.795 75.714 75.484 0 11.37-9.245 20.586-20.65 20.586-11.403 0-20.649-9.217-20.649-20.586Z" fill="#463C74"/><path d="M450.164 668.548c0 52.408 42.471 94.892 94.864 94.892 11.39 0 20.623 9.236 20.623 20.629 0 11.392-9.234 20.628-20.623 20.628-75.171 0-136.11-60.956-136.11-136.149 0-11.392 9.234-20.629 20.623-20.629 11.39 0 20.623 9.237 20.623 20.63Z" fill="#E5E0D5" fill-rule="nonzero"/><path d="M870.236 51.537c-76.08 0-137.755 61.693-137.755 137.796 0 11.415-9.252 20.669-20.663 20.669-11.412 0-20.664-9.254-20.664-20.67 0-98.932 80.178-179.134 179.082-179.134 11.412 0 20.664 9.254 20.664 20.67 0 11.415-9.252 20.67-20.664 20.67Z" fill="#FFC735"/><path d="M1067.033 178.743c0-69.95-56.689-126.655-126.617-126.655-11.402 0-20.645-9.245-20.645-20.65s9.243-20.65 20.645-20.65c92.732 0 167.906 75.196 167.906 167.955 0 11.404-9.244 20.65-20.645 20.65-11.4 0-20.644-9.246-20.644-20.65Z" fill="#B4D51E"/><path d="M423.06 570.71c0-54.687-44.319-99.018-98.99-99.018-11.389 0-20.622-9.237-20.622-20.63 0-11.392 9.233-20.628 20.623-20.628 77.449 0 140.234 62.804 140.234 140.275 0 11.393-9.234 20.629-20.623 20.629-11.39 0-20.623-9.236-20.623-20.629Z" fill="#FFC735"/><path d="M59.513 559.19c-.148-11.392 8.964-20.748 20.353-20.895 11.388-.149 20.74 8.966 20.889 20.358.148 11.392-8.964 20.747-20.353 20.895-11.389.149-20.74-8.966-20.89-20.358Zm236.864 352.777c-11.389 0-20.622-9.237-20.622-20.63 0-11.392 9.233-20.628 20.622-20.628 11.39 0 20.623 9.236 20.623 20.629 0 11.392-9.233 20.629-20.623 20.629Zm100.168 144.4c-11.39 0-20.623-9.236-20.623-20.628 0-11.393 9.233-20.629 20.623-20.629 11.389 0 20.622 9.236 20.622 20.629 0 11.392-9.233 20.628-20.622 20.628Zm-292.842 54.813c-11.39 0-20.623-9.235-20.623-20.628 0-11.392 9.233-20.629 20.623-20.629s20.622 9.237 20.622 20.63c0 11.392-9.233 20.628-20.622 20.628Z" fill="#FD6234"/><path d="M296.377 966.78c-11.389 0-20.622-9.236-20.622-20.629 0-11.392 9.233-20.628 20.622-20.628 11.39 0 20.623 9.236 20.623 20.628 0 11.393-9.233 20.629-20.623 20.629Zm0 55.403c-11.389 0-20.622-9.236-20.622-20.629s9.233-20.629 20.622-20.629c11.39 0 20.623 9.236 20.623 20.629s-9.233 20.629-20.623 20.629Z" fill="#463C74"/><path d="M451.931 1063.44c-11.389 0-20.622-9.236-20.622-20.629 0-11.392 9.233-20.628 20.622-20.628 11.39 0 20.623 9.236 20.623 20.628 0 11.393-9.234 20.63-20.623 20.63Zm0 54.813c-11.389 0-20.622-9.236-20.622-20.628 0-11.393 9.233-20.629 20.622-20.629 11.39 0 20.623 9.236 20.623 20.629 0 11.392-9.234 20.628-20.623 20.628ZM429.54 689.177c-11.388 0-20.622-9.236-20.622-20.629 0-11.392 9.234-20.629 20.623-20.629 11.39 0 20.623 9.237 20.623 20.63 0 11.392-9.234 20.628-20.623 20.628Zm-247.471-2.947c-11.39 0-20.623-9.236-20.623-20.629 0-11.392 9.234-20.629 20.623-20.629 11.389 0 20.622 9.237 20.622 20.63 0 11.392-9.233 20.628-20.622 20.628Z" fill="#FD6234"/><path d="M578.56 661.77c0-19.013-15.409-34.426-34.416-34.426-19.008 0-34.416 15.413-34.416 34.426s15.408 34.426 34.416 34.426c19.007 0 34.416-15.413 34.416-34.426Zm-34.416-75.737c41.815 0 75.715 33.908 75.715 75.737 0 41.829-33.9 75.737-75.715 75.737-41.816 0-75.715-33.908-75.715-75.737 0-41.829 33.899-75.737 75.715-75.737Z" fill="#FFC735"/><path d="M636.357 248.902c0 11.392 9.245 20.628 20.653 20.628 19.01 0 34.42 15.394 34.42 34.382v137.524c0 18.988-15.41 34.381-34.42 34.381-11.408 0-20.653 9.236-20.653 20.629s9.245 20.629 20.653 20.629c21.699 0 41.267-9.117 55.074-23.725 13.805 14.608 33.374 23.725 55.074 23.725h63.335c41.823 0 75.726-33.864 75.726-75.639 0-11.392-9.247-20.629-20.652-20.629-11.406 0-20.653 9.237-20.653 20.63 0 18.987-15.411 34.38-34.421 34.38h-63.335c-19.01 0-34.422-15.393-34.422-34.38V303.911c0-41.775-33.905-75.639-75.726-75.639-11.408 0-20.653 9.236-20.653 20.629Z" fill="#B4D51E"/><path d="M677.602 496.578c0-11.398-9.245-20.639-20.649-20.639-19.006 0-34.414-15.4-34.414-34.398V303.95c0-18.998 15.408-34.398 34.414-34.398 11.404 0 20.65-9.24 20.65-20.64 0-11.397-9.246-20.638-20.65-20.638-41.815 0-75.712 33.88-75.712 75.676v137.59c0 1.694.055 3.374.166 5.039-34.367 10.516-59.359 42.475-59.359 80.268v79.804c0 11.398 9.245 20.639 20.65 20.639 11.403 0 20.648-9.24 20.648-20.64v-79.803c0-19.872 13.598-36.572 32-41.308 13.735 19.178 36.21 31.677 61.607 31.677 11.404 0 20.65-9.24 20.65-20.639Z" fill="#E5E0D5" fill-rule="nonzero"/><path d="M656.685 517.128c-19.009 0-34.416 15.413-34.416 34.426s15.407 34.426 34.416 34.426c19.007 0 34.416-15.413 34.416-34.426 0-11.407 9.244-20.655 20.65-20.655 11.403 0 20.649 9.248 20.649 20.655 0 41.829-33.9 75.737-75.715 75.737-41.817 0-75.715-33.908-75.715-75.737 0-41.829 33.898-75.737 75.715-75.737 11.404 0 20.65 9.248 20.65 20.656 0 11.407-9.246 20.655-20.65 20.655Z" fill="#463C74"/><path d="M1153.745 655.876c0-19.012 15.409-34.426 34.416-34.426 19.007 0 34.416 15.414 34.416 34.426 0 19.013-15.41 34.426-34.416 34.426-11.404 0-20.65 9.248-20.65 20.655 0 11.408 9.246 20.656 20.65 20.656 41.816 0 75.714-33.908 75.714-75.737 0-41.828-33.898-75.737-75.714-75.737-41.817 0-75.715 33.909-75.715 75.737 0 11.408 9.246 20.656 20.65 20.656 11.404 0 20.649-9.248 20.649-20.656Z" fill="#E5E0D5" fill-rule="nonzero"/><path d="M656.98 517.075c-11.391 0-20.623-9.236-20.623-20.629s9.232-20.629 20.623-20.629c11.389 0 20.622 9.236 20.622 20.629s-9.233 20.629-20.622 20.629Zm0-247.545c-11.391 0-20.623-9.236-20.623-20.628 0-11.393 9.232-20.629 20.623-20.629 11.389 0 20.622 9.236 20.622 20.629 0 11.392-9.233 20.628-20.622 20.628ZM542.671 627.29c-11.39 0-20.623-9.235-20.623-20.628 0-11.392 9.234-20.629 20.623-20.629 11.39 0 20.623 9.237 20.623 20.63 0 11.392-9.234 20.628-20.623 20.628Z" fill="#FD6234"/><path d="M543.85 682.104c-11.39 0-20.623-9.236-20.623-20.629 0-11.392 9.233-20.628 20.622-20.628 11.39 0 20.623 9.236 20.623 20.628 0 11.393-9.233 20.63-20.623 20.63Z" fill="#463C74"/><path d="M1409.83 478.518c0 41.802-33.904 75.688-75.726 75.688H1196.42c-41.823 0-75.726-33.886-75.726-75.688 0-41.803 33.903-75.69 75.726-75.69h44.058V359.48c0-41.801 33.903-75.689 75.726-75.689h137.683c19.014 0 34.42-15.403 34.42-34.404v-63.303c0-19.001-15.406-34.404-34.42-34.404-11.4 0-20.653-9.243-20.653-20.643s9.253-20.642 20.653-20.642c41.828 0 75.725 33.886 75.725 75.689v63.303c0 21.688-9.128 41.248-23.75 55.046 14.622 13.8 23.75 33.358 23.75 55.047v61.927c0 11.4-9.252 20.642-20.652 20.642s-20.652-9.242-20.652-20.642V359.48c0-19-15.407-34.404-34.421-34.404h-137.683c-19.01 0-34.42 15.403-34.42 34.404v43.349h52.319c41.822 0 75.725 33.886 75.725 75.689Zm-213.41-34.404c-19.01 0-34.42 15.403-34.42 34.404 0 19 15.41 34.404 34.42 34.404h137.684c19.01 0 34.42-15.404 34.42-34.404 0-19.001-15.41-34.404-34.42-34.404H1196.42Z" fill="#B4D51E"/><path d="M1100.752 280.288c23.486 9.552 50.085-1.654 59.523-24.763 9.438-23.109-1.735-49.677-25.221-59.23-12.977-5.277-26.906-4.23-38.416 1.71-10.134 5.23-22.597 1.273-27.838-8.839s-1.275-22.549 8.858-27.779c21.827-11.266 48.38-13.278 72.987-3.27 44.446 18.076 66.006 68.604 47.887 112.967-18.118 44.365-68.927 65.458-113.373 47.383-10.564-4.298-15.639-16.328-11.332-26.87 4.304-10.543 16.36-15.605 26.925-11.31Zm308.661 202.602c0 52.408 42.469 94.892 94.864 94.892 11.384 0 20.623 9.236 20.623 20.629 0 11.392-9.24 20.628-20.623 20.628-75.177 0-136.11-60.956-136.11-136.149 0-11.393 9.24-20.629 20.623-20.629 11.384 0 20.623 9.236 20.623 20.629Z" fill="#FFC735"/><path d="M1388.79 502.34c-11.384 0-20.623-9.236-20.623-20.629 0-11.392 9.24-20.628 20.623-20.628 11.384 0 20.623 9.236 20.623 20.628 0 11.393-9.24 20.629-20.623 20.629Z" fill="#FD6234"/><path d="M636.303 399.828c0-18.95-15.408-34.311-34.415-34.311-19.009 0-34.416 15.362-34.416 34.311 0 11.37-9.246 20.587-20.65 20.587-11.405 0-20.65-9.218-20.65-20.587 0-41.69 33.899-75.484 75.716-75.484 41.815 0 75.714 33.795 75.714 75.484 0 11.37-9.245 20.587-20.65 20.587s-20.649-9.218-20.649-20.587Z" fill="#FFC735"/><path d="M975.104 442.853c0-18.949-15.408-34.31-34.415-34.31-19.007 0-34.416 15.361-34.416 34.31 0 11.37-9.246 20.587-20.65 20.587-11.404 0-20.649-9.217-20.649-20.587 0-41.689 33.898-75.484 75.715-75.484 41.816 0 75.714 33.795 75.714 75.484 0 11.37-9.245 20.587-20.65 20.587-11.403 0-20.649-9.217-20.649-20.587Z" fill="#463C74"/><path d="M456.056 1157.153c52.392 0 94.864-42.484 94.864-94.892 0-11.392 9.234-20.628 20.623-20.628 11.389 0 20.622 9.236 20.622 20.628 0 75.193-60.938 136.15-136.11 136.15-11.388 0-20.622-9.237-20.622-20.63 0-11.392 9.234-20.628 20.623-20.628Z" fill="#E5E0D5" fill-rule="nonzero"/><path d="M665.252 669.68c60.814 0 110.114-49.314 110.114-110.146 0-11.405 9.244-20.652 20.646-20.652 11.402 0 20.646 9.247 20.646 20.652 0 83.643-67.787 151.45-151.406 151.45-11.402 0-20.646-9.246-20.646-20.652s9.244-20.652 20.646-20.652Z" fill="#B4D51E"/><path d="M656.98 420.415c-11.391 0-20.623-9.237-20.623-20.63 0-11.392 9.232-20.628 20.623-20.628 11.389 0 20.622 9.236 20.622 20.629 0 11.392-9.233 20.629-20.622 20.629ZM801.338 290.16c-11.389 0-20.622-9.237-20.622-20.63 0-11.392 9.233-20.628 20.622-20.628 11.39 0 20.623 9.236 20.623 20.628 0 11.393-9.233 20.63-20.623 20.63Zm313.465 422.003c0 11.393 9.233 20.629 20.623 20.629 11.389 0 20.622-9.236 20.622-20.629 0-11.392-9.233-20.629-20.622-20.629-11.39 0-20.623 9.237-20.623 20.63Zm-54.797 0c0 11.393 9.233 20.629 20.622 20.629 11.39 0 20.623-9.236 20.623-20.629 0-11.392-9.234-20.629-20.623-20.629-11.389 0-20.622 9.237-20.622 20.63Z" fill="#FD6234"/><path d="M1463.915 1198.232c-41.822 0-75.714-33.864-75.714-75.639V985.07c0-41.775 33.892-75.639 75.714-75.639 41.822 0 75.715 33.864 75.715 75.639v137.524c0 41.775-33.893 75.639-75.715 75.639Zm34.416-75.639V985.07c0-18.988-15.404-34.381-34.416-34.381-19.01 0-34.415 15.393-34.415 34.38v137.525c0 18.988 15.404 34.381 34.415 34.381 19.012 0 34.416-15.393 34.416-34.38Z" fill="#B4D51E" style="mix-blend-mode:multiply" transform="translate(.59 .179)"/><path d="M1485.54 930.267c0-41.715 33.945-75.53 75.832-75.53 11.417 0 20.682-9.223 20.682-20.6 0-11.376-9.265-20.599-20.682-20.599-64.72 0-117.195 52.262-117.195 116.73 0 11.375 9.265 20.598 20.681 20.598s20.682-9.223 20.682-20.599Z" fill="#E5E0D5" fill-rule="nonzero"/><path d="M1485.422 930.238c0-11.394-9.239-20.629-20.623-20.629-11.383 0-20.622 9.235-20.622 20.629 0 11.392 9.239 20.628 20.622 20.628 11.384 0 20.623-9.236 20.623-20.628Z" fill="#FD6234"/><path d="M1280.079 1088.248c-19.007 0-34.416 15.413-34.416 34.426s15.409 34.426 34.416 34.426c19.007 0 34.416-15.413 34.416-34.426s-15.409-34.426-34.416-34.426Zm-75.715 34.426c0-41.829 33.898-75.737 75.715-75.737s75.715 33.908 75.715 75.737c0 41.829-33.898 75.737-75.715 75.737s-75.715-33.908-75.715-75.737Z" fill="#FFC735"/><path d="M867.341 989.177c11.395 0 20.633 9.26 20.633 20.681 0 19.037 15.396 34.469 34.388 34.469h137.552c18.992 0 34.388-15.432 34.388-34.469 0-11.421 9.238-20.681 20.633-20.681s20.633 9.26 20.633 20.681c0 25.383-12.442 47.853-31.545 61.617 4.847 17.79 21.179 30.76 41.174 30.76h79.78c11.395 0 20.633 9.26 20.633 20.68 0 11.423-9.238 20.682-20.633 20.682h-79.78c-37.32 0-69.375-23.975-80.093-58.083a77.023 77.023 0 0 1-5.19.176H922.362c-41.783 0-75.654-33.95-75.654-75.832 0-11.421 9.238-20.681 20.633-20.681Z" fill="#E5E0D5" fill-rule="nonzero"/><path d="M697.93 742.811c41.817 0 75.715 33.864 75.715 75.639v137.524c0 41.775-33.898 75.639-75.715 75.639-41.816 0-75.714-33.864-75.714-75.639V818.45c0-41.775 33.898-75.639 75.714-75.639Zm34.416 75.639c0-18.988-15.409-34.381-34.416-34.381-19.007 0-34.415 15.393-34.415 34.38v137.525c0 18.988 15.408 34.382 34.415 34.382 19.007 0 34.416-15.394 34.416-34.382V818.45Zm134.984 211.984c11.39 0 20.624-9.25 20.624-20.659 0-19.015 15.388-34.43 34.37-34.43h137.485c18.983 0 34.371 15.415 34.371 34.43 0 11.41 9.234 20.66 20.623 20.66 11.39 0 20.623-9.25 20.623-20.66 0-21.705-9.114-41.279-23.718-55.09 14.604-13.81 23.718-33.384 23.718-55.09v-63.353c0-41.835-33.855-75.749-75.617-75.749-11.39 0-20.623 9.25-20.623 20.659 0 11.409 9.234 20.659 20.623 20.659 18.983 0 34.371 15.415 34.371 34.43v63.354c0 19.016-15.388 34.432-34.37 34.432H922.325c-.001 0 0 0 0 0-41.762 0-75.618 33.913-75.618 75.748 0 11.41 9.234 20.66 20.623 20.66Z" fill="#B4D51E"/><path d="M1135.48 1009.51c0 19.013 15.408 34.427 34.415 34.427 19.007 0 34.416-15.414 34.416-34.426 0-19.013-15.409-34.426-34.416-34.426-11.404 0-20.65-9.248-20.65-20.655 0-11.408 9.246-20.656 20.65-20.656 41.817 0 75.715 33.908 75.715 75.737 0 41.829-33.898 75.737-75.715 75.737s-75.715-33.908-75.715-75.737c0-11.408 9.246-20.656 20.65-20.656 11.404 0 20.65 9.248 20.65 20.656ZM959.785 840.356c0-19.013-15.409-34.426-34.416-34.426-19.007 0-34.416 15.413-34.416 34.426 0 19.012 15.409 34.425 34.416 34.425 11.404 0 20.65 9.249 20.65 20.656 0 11.407-9.246 20.655-20.65 20.655-41.817 0-75.715-33.908-75.715-75.736 0-41.83 33.898-75.737 75.715-75.737 41.816 0 75.715 33.908 75.715 75.737 0 11.407-9.246 20.655-20.65 20.655-11.404 0-20.65-9.248-20.65-20.655Z" fill="#463C74"/><path d="M677.602 951.984c0-25.392-20.404-45.809-45.37-45.809-24.965 0-45.37 20.417-45.37 45.809 0 14.027 6.218 26.544 16.059 34.966 8.664 7.415 9.694 20.468 2.3 29.155-7.394 8.688-20.411 9.72-29.074 2.306-18.662-15.97-30.53-39.825-30.53-66.427 0-48.05 38.687-87.169 86.615-87.169 47.929 0 86.616 39.118 86.616 87.169 0 11.42-9.234 20.68-20.623 20.68-11.39 0-20.623-9.26-20.623-20.68Zm457.824 57.232c0 11.393-9.234 20.629-20.623 20.629-11.39 0-20.623-9.236-20.623-20.629 0-11.392 9.234-20.629 20.623-20.629 11.39 0 20.623 9.237 20.623 20.63Zm-247.472.59c0 11.392-9.234 20.628-20.623 20.628-11.39 0-20.623-9.236-20.623-20.628 0-11.393 9.234-20.63 20.623-20.63 11.39 0 20.623 9.237 20.623 20.63Zm357.656 113.163c0 11.392-9.234 20.628-20.623 20.628-11.39 0-20.623-9.236-20.623-20.628 0-11.393 9.234-20.63 20.623-20.63 11.39 0 20.623 9.237 20.623 20.63Zm55.386-.589c0 11.392-9.233 20.628-20.622 20.628-11.39 0-20.623-9.236-20.623-20.629 0-11.392 9.233-20.629 20.623-20.629 11.389 0 20.622 9.237 20.622 20.63Z" fill="#FD6234"/><path d="M1018.802 1030.488c-18.943 0-34.3 15.413-34.3 34.426 0 19.012 15.357 34.425 34.3 34.425 11.366 0 20.58 9.248 20.58 20.656 0 11.407-9.214 20.655-20.58 20.655-41.677 0-75.462-33.908-75.462-75.736 0-41.83 33.785-75.737 75.462-75.737 11.366 0 20.58 9.248 20.58 20.655 0 11.408-9.214 20.656-20.58 20.656Zm42.345-369.013c-26.239 0-48.205 21.779-48.205 49.51 0 27.73 21.966 49.508 48.205 49.508 11.41 0 20.66 9.236 20.66 20.629 0 11.392-9.25 20.628-20.66 20.628-49.826 0-89.524-41.024-89.524-90.766 0-49.741 39.698-90.766 89.524-90.766 11.41 0 20.66 9.236 20.66 20.629 0 11.392-9.25 20.628-20.66 20.628ZM925.06 916.169c-52.432 0-94.935 42.563-94.935 95.068 0 41.852-33.88 75.779-75.672 75.779-41.793 0-75.672-33.927-75.672-75.78 0-11.413 9.24-20.666 20.638-20.666 11.397 0 20.637 9.253 20.637 20.667 0 19.023 15.4 34.445 34.397 34.445 18.996 0 34.396-15.422 34.396-34.445 0-75.333 60.984-136.402 136.21-136.402 11.398 0 20.638 9.253 20.638 20.667 0 11.414-9.24 20.667-20.638 20.667Z" fill="#FFC735"/><path d="M702.35 742.811c86.56 0 156.732-70.192 156.732-156.778 0-11.392 9.233-20.628 20.622-20.628 11.39 0 20.623 9.236 20.623 20.628 0 109.372-88.638 198.036-197.978 198.036-11.389 0-20.622-9.236-20.622-20.629 0-11.392 9.233-20.629 20.622-20.629ZM1310.382 50.36c-73.801 0-133.628 59.845-133.628 133.667 0 11.416-9.252 20.67-20.664 20.67s-20.664-9.254-20.664-20.67c0-96.654 78.33-175.007 174.956-175.007 11.412 0 20.664 9.254 20.664 20.67 0 11.416-9.252 20.67-20.664 20.67Z" fill="#E5E0D5" fill-rule="nonzero"/><path d="M1274.481 994.481c0-52.408-42.471-94.892-94.864-94.892-11.39 0-20.623-9.236-20.623-20.628 0-11.393 9.234-20.629 20.623-20.629 75.171 0 136.11 60.956 136.11 136.15 0 11.392-9.234 20.628-20.623 20.628-11.39 0-20.623-9.236-20.623-20.629Z" fill="#FD6234"/><path d="M43.013 1062.261c0 52.408 42.472 94.892 94.864 94.892 11.39 0 20.623 9.236 20.623 20.629 0 11.392-9.233 20.629-20.623 20.629-75.171 0-136.11-60.957-136.11-136.15 0-11.392 9.234-20.628 20.623-20.628 11.39 0 20.623 9.236 20.623 20.628Z" fill="#B4D51E"/><path d="M586.895 852.963c-34.873 0-63.144 28.278-63.144 63.162 0 11.374-9.219 20.596-20.59 20.596s-20.59-9.222-20.59-20.596c0-57.634 46.707-104.355 104.324-104.355 11.371 0 20.59 9.222 20.59 20.596 0 11.375-9.219 20.597-20.59 20.597Z" fill="#FFC735"/><path d="M1039.383 1009.806c0 11.392-9.234 20.628-20.623 20.628-11.389 0-20.622-9.236-20.622-20.628 0-11.393 9.233-20.63 20.622-20.63 11.39 0 20.623 9.237 20.623 20.63Zm-93.097-114.342c0 11.392-9.233 20.628-20.622 20.628-11.39 0-20.623-9.236-20.623-20.628 0-11.393 9.233-20.629 20.623-20.629 11.389 0 20.622 9.236 20.622 20.629Zm-.589-169.156c0 11.393-9.233 20.63-20.623 20.63-11.389 0-20.622-9.237-20.622-20.63 0-11.392 9.233-20.628 20.622-20.628 11.39 0 20.623 9.236 20.623 20.628Zm0-55.402c0 11.392-9.233 20.628-20.623 20.628-11.389 0-20.622-9.236-20.622-20.628 0-11.393 9.233-20.629 20.622-20.629 11.39 0 20.623 9.236 20.623 20.629ZM906.22 443.4c0 11.393-9.234 20.63-20.623 20.63-11.39 0-20.623-9.237-20.623-20.63 0-11.392 9.233-20.628 20.623-20.628 11.389 0 20.622 9.236 20.622 20.629Zm175.587 337.722c0 11.392-9.234 20.628-20.623 20.628-11.39 0-20.623-9.236-20.623-20.628 0-11.393 9.234-20.629 20.623-20.629 11.39 0 20.623 9.236 20.623 20.629Z" fill="#FD6234"/><path d="M433.96 123.308c-19.007 0-34.416-15.413-34.416-34.426s15.409-34.426 34.416-34.426c19.007 0 34.416 15.413 34.416 34.426s-15.409 34.426-34.416 34.426Zm-75.715-34.426c0 41.828 33.899 75.737 75.715 75.737 41.817 0 75.715-33.909 75.715-75.737 0-41.828-33.898-75.737-75.715-75.737-41.816 0-75.715 33.909-75.715 75.737Z" fill="#FFC735"/><path d="M21.212 181.122c11.39 0 20.623 9.247 20.623 20.652 0 19.01 15.388 34.42 34.37 34.42H213.69c18.983 0 34.371-15.41 34.371-34.42 0-11.405 9.234-20.652 20.623-20.652 11.39 0 20.623 9.247 20.623 20.652 0 41.822-33.854 75.725-75.617 75.725H78.955c-18.982 0-34.37 15.41-34.37 34.42v137.682c0 19.01 15.388 34.42 34.37 34.42 11.39 0 20.623 9.247 20.623 20.653 0 11.405-9.233 20.652-20.623 20.652-41.761 0-75.616-33.903-75.616-75.725V311.92c0-21.026 8.558-40.053 22.376-53.774C10.292 244.282.59 224.162.59 201.775c0-11.406 9.233-20.653 20.623-20.653Z" fill="#B4D51E"/><path d="M219.111 126.5c10.893-33.628 42.552-57.952 79.909-57.952h79.826c11.401 0 20.645 9.214 20.645 20.58 0 11.367-9.244 20.581-20.645 20.581H299.02c-19.514 0-35.968 13.06-41.047 30.89 18.983 13.713 31.334 36.013 31.334 61.194 0 11.369-9.234 20.586-20.623 20.586-11.39 0-20.623-9.217-20.623-20.586 0-18.95-15.388-34.311-34.37-34.311H76.205c-18.983 0-34.371 15.361-34.371 34.31 0 11.37-9.233 20.587-20.623 20.587S.589 213.162.589 201.793c0-41.69 33.855-75.485 75.617-75.485H213.69c1.823 0 3.63.065 5.421.191Z" fill="#E5E0D5" fill-rule="nonzero"/><path d="M289.36 202.045c0-19.012 15.409-34.426 34.416-34.426 19.007 0 34.416 15.414 34.416 34.426 0 19.013-15.409 34.426-34.416 34.426-11.404 0-20.65 9.248-20.65 20.655 0 11.408 9.246 20.656 20.65 20.656 41.817 0 75.715-33.908 75.715-75.737 0-41.829-33.898-75.737-75.715-75.737s-75.715 33.908-75.715 75.737c0 11.408 9.246 20.656 20.65 20.656 11.404 0 20.65-9.248 20.65-20.656Z" fill="#463C74"/><path d="M289.307 202.34c0-11.393-9.234-20.629-20.623-20.629-11.39 0-20.623 9.236-20.623 20.629 0 11.392 9.234 20.629 20.623 20.629 11.39 0 20.623-9.237 20.623-20.63Z" fill="#FD6234"/><path d="M41.835 201.75c0-11.392-9.234-20.628-20.623-20.628-11.39 0-20.623 9.236-20.623 20.628 0 11.393 9.234 20.63 20.623 20.63 11.39 0 20.623-9.237 20.623-20.63Zm226.849 125.54c0-11.392-9.233-20.628-20.623-20.628-11.389 0-20.622 9.236-20.622 20.629 0 11.392 9.233 20.628 20.622 20.628 11.39 0 20.623-9.236 20.623-20.628Zm0 54.814c0-11.392-9.233-20.629-20.623-20.629-11.389 0-20.622 9.237-20.622 20.63 0 11.392 9.233 20.628 20.622 20.628 11.39 0 20.623-9.236 20.623-20.629Zm179.123 23.576c0-11.393-9.234-20.629-20.623-20.629-11.39 0-20.623 9.236-20.623 20.629 0 11.392 9.234 20.628 20.623 20.628 11.39 0 20.623-9.236 20.623-20.628Zm56.565-2.947c0-11.393-9.234-20.629-20.623-20.629-11.39 0-20.623 9.236-20.623 20.629 0 11.392 9.234 20.628 20.623 20.628 11.39 0 20.623-9.236 20.623-20.628Zm0 57.76c0-11.392-9.234-20.629-20.623-20.629-11.39 0-20.623 9.237-20.623 20.63 0 11.392 9.234 20.628 20.623 20.628 11.39 0 20.623-9.236 20.623-20.629ZM223.314 1178.96c0-11.392-9.233-20.628-20.623-20.628-11.389 0-20.622 9.236-20.622 20.629 0 11.392 9.233 20.628 20.622 20.628 11.39 0 20.623-9.236 20.623-20.628Z" fill="#463C74"/><path d="M285.182 1178.96c0-11.392-9.233-20.628-20.623-20.628-11.389 0-20.622 9.236-20.622 20.629 0 11.392 9.233 20.628 20.622 20.628 11.39 0 20.623-9.236 20.623-20.628Z" fill="#FD6234"/><path d="M471.375 1177.782c0-11.393-9.233-20.629-20.622-20.629-11.39 0-20.623 9.236-20.623 20.629 0 11.392 9.234 20.629 20.623 20.629 11.389 0 20.622-9.237 20.622-20.63Z" fill="#463C74"/><path d="M399.49 89.177c0-11.393-9.233-20.629-20.622-20.629-11.39 0-20.623 9.236-20.623 20.629s9.234 20.629 20.623 20.629c11.39 0 20.623-9.236 20.623-20.63Zm55.387 0c0-11.393-9.233-20.629-20.622-20.629-11.39 0-20.623 9.236-20.623 20.629s9.233 20.629 20.623 20.629c11.389 0 20.622-9.236 20.622-20.63Z" fill="#FD6234"/><path d="M199.787 181.068c-18.943 0-34.3-15.413-34.3-34.426 0-19.012 15.357-34.425 34.3-34.425 11.366 0 20.581-9.248 20.581-20.656s-9.215-20.655-20.58-20.655c-41.678 0-75.463 33.908-75.463 75.736 0 41.83 33.785 75.737 75.462 75.737 11.366 0 20.581-9.248 20.581-20.655 0-11.408-9.215-20.656-20.58-20.656Z" fill="#FFC735"/><path d="M97.221 389.177c52.393 0 94.865 42.484 94.865 94.892 0 11.392 9.233 20.628 20.622 20.628 11.39 0 20.623-9.236 20.623-20.628 0-75.193-60.939-136.15-136.11-136.15-11.39 0-20.622 9.237-20.622 20.63 0 11.392 9.233 20.628 20.622 20.628Zm3.536 115.52c0-11.392-9.234-20.628-20.623-20.628-11.39 0-20.623 9.236-20.623 20.628 0 11.393 9.233 20.63 20.623 20.63s20.623-9.237 20.623-20.63Z" fill="#FD6234"/><path d="M1001.084 895.464c0 11.392-9.234 20.628-20.623 20.628-11.39 0-20.623-9.236-20.623-20.628 0-11.393 9.234-20.629 20.623-20.629 11.39 0 20.623 9.236 20.623 20.629Zm54.797 0c0 11.392-9.233 20.628-20.623 20.628-11.389 0-20.622-9.236-20.622-20.628 0-11.393 9.233-20.629 20.622-20.629 11.39 0 20.623 9.236 20.623 20.629Z" fill="#463C74"/><path d="M718.848 763.44c0 11.393-9.234 20.629-20.623 20.629-11.39 0-20.623-9.236-20.623-20.629 0-11.392 9.234-20.629 20.623-20.629 11.39 0 20.623 9.237 20.623 20.63Zm1.178 247.544c0 11.393-9.233 20.629-20.623 20.629-11.389 0-20.622-9.236-20.622-20.629 0-11.392 9.233-20.628 20.622-20.628 11.39 0 20.623 9.236 20.623 20.628Z" fill="#FD6234"/><path d="M949.89 196.446c-23.306 0-42.424 19.024-42.424 42.767 0 23.743 19.118 42.766 42.424 42.766 84.694 0 153.129 68.965 153.129 153.76 0 11.392-9.25 20.628-20.657 20.628-11.408 0-20.657-9.236-20.657-20.628 0-62.256-50.184-112.502-111.815-112.502-46.37 0-83.738-37.743-83.738-84.024 0-46.282 37.369-84.024 83.738-84.024 11.41 0 20.657 9.236 20.657 20.628 0 11.393-9.247 20.629-20.657 20.629Z" fill="#FFC735"/><path d="M1061.184 435.785c0 62.624-50.06 113.024-111.362 113.024-11.39 0-20.623 9.257-20.623 20.675 0 11.418 9.233 20.675 20.623 20.675 84.484 0 152.607-69.318 152.607-154.374 0-11.418-9.233-20.675-20.622-20.675-11.39 0-20.623 9.257-20.623 20.675Z" fill="#FD6234"/><path d="M1081.807 456.367c-11.39 0-20.623-9.236-20.623-20.628 0-11.393 9.233-20.629 20.623-20.629 11.389 0 20.622 9.236 20.622 20.629 0 11.392-9.233 20.628-20.622 20.628Z" fill="#463C74"/><path d="M801.338 310.788c11.39 0 20.623 9.25 20.623 20.66v89.525c0 11.41-9.233 20.66-20.623 20.66-11.389 0-20.622-9.25-20.622-20.66v-89.525c0-11.41 9.233-20.66 20.622-20.66Zm-338.252-116.09c0 76.788-62.23 139.036-138.995 139.036-11.4 0-20.643 9.245-20.643 20.649 0 11.403 9.242 20.648 20.643 20.648 99.566 0 180.28-80.738 180.28-180.333 0-11.404-9.242-20.649-20.642-20.649-11.4 0-20.643 9.245-20.643 20.649Z" fill="#B4D51E"/><path d="M1142.496 238.882c0 11.393-9.25 20.629-20.66 20.629H946.913c-11.41 0-20.66-9.236-20.66-20.629 0-11.392 9.25-20.629 20.66-20.629h174.923c11.41 0 20.66 9.237 20.66 20.63Z" fill="#E5E0D5" fill-rule="nonzero"/><path d="M504.372 194.678c0-11.393-9.234-20.629-20.623-20.629-11.39 0-20.623 9.236-20.623 20.629 0 11.392 9.234 20.628 20.623 20.628 11.39 0 20.623-9.236 20.623-20.628Z" fill="#FD6234"/><path d="M1101.103 194.53c-8.054 8.056-21.112 8.056-29.165 0-8.054-8.057-8.054-21.119 0-29.174 8.053-8.056 21.11-8.056 29.165 0 8.054 8.055 8.054 21.117 0 29.174Zm-140.234-61.887c-8.054 8.057-21.113 8.057-29.165 0-8.054-8.056-8.054-21.117 0-29.173 8.052-8.056 21.11-8.056 29.165 0 8.053 8.056 8.053 21.117 0 29.173ZM.59 640.847c0-11.393 9.232-20.629 20.622-20.629h65.992c11.39 0 20.623 9.236 20.623 20.629 0 11.392-9.233 20.628-20.623 20.628H21.212c-11.39 0-20.623-9.236-20.623-20.628Z" fill="#463C74"/><path d="M656.98 1195.464c-11.39 0-20.623-9.218-20.623-20.589v-59.02c0-11.37 9.233-20.588 20.623-20.588 11.389 0 20.622 9.218 20.622 20.589v59.02c0 11.37-9.233 20.588-20.622 20.588Z" fill="#B4D51E"/><path d="M755.968 1178.96c0-11.392 9.243-20.628 20.643-20.628h163.763c11.4 0 20.643 9.236 20.643 20.629 0 11.392-9.243 20.628-20.643 20.628H776.611c-11.4 0-20.643-9.236-20.643-20.628Z" fill="#FFC735"/><path d="M.59 31.417c0-11.393 9.232-20.63 20.622-20.63h94.864c11.39 0 20.623 9.237 20.623 20.63 0 11.392-9.233 20.628-20.623 20.628H21.212C9.822 52.045.589 42.81.589 31.417ZM945.697 1199.59c-11.39 0-20.623-9.237-20.623-20.63 0-11.392 9.234-20.628 20.623-20.628 11.39 0 20.623 9.236 20.623 20.629 0 11.392-9.234 20.628-20.623 20.628ZM885.629 141.568c-34.874 0-63.144 28.279-63.144 63.162 0 11.374-9.219 20.596-20.59 20.596-11.373 0-20.59-9.222-20.59-20.596 0-57.634 46.707-104.355 104.324-104.355 11.371 0 20.59 9.221 20.59 20.597 0 11.375-9.219 20.596-20.59 20.596Z" fill="#FD6234"/><path d="M787.345 190.11c8.053-8.055 21.111-8.055 29.165 0 8.054 8.057 8.054 21.118 0 29.174-8.054 8.056-21.112 8.056-29.165 0-8.054-8.056-8.054-21.117 0-29.173Z" fill="#463C74"/><path d="M1196.115 793.499c72.893 0 131.985-59.11 131.985-132.024 0-11.392 9.234-20.628 20.623-20.628 11.39 0 20.623 9.236 20.623 20.628 0 95.701-77.558 173.281-173.23 173.281-11.39 0-20.623-9.236-20.623-20.628 0-11.393 9.233-20.629 20.622-20.629Z" fill="#B4D51E"/><path d="M1363.305 676.062c-8.054 8.056-21.112 8.056-29.164 0-8.054-8.056-8.054-21.118 0-29.173 8.052-8.056 21.11-8.056 29.164 0 8.054 8.055 8.054 21.117 0 29.173Zm58.331 0c-8.057 8.056-21.118 8.056-29.16 0-8.057-8.056-8.057-21.118 0-29.173 8.042-8.056 21.103-8.056 29.16 0 8.057 8.055 8.057 21.117 0 29.173Z" fill="#463C74"/><path d="M1559.63 753.488c-98.875 0-179.022 80.174-179.022 179.074 0 11.41-9.248 20.662-20.656 20.662s-20.656-9.251-20.656-20.662c0-121.724 98.64-220.399 220.334-220.399 11.402 0 20.656 9.251 20.656 20.662 0 11.412-9.254 20.663-20.656 20.663Z" fill="#FFC735"/><path d="M1142.496 238.778c.058 11.393-9.128 20.676-20.519 20.733-11.389.057-20.668-9.13-20.726-20.525-.058-11.393 9.13-20.675 20.519-20.733 11.39-.057 20.67 9.133 20.726 20.525Zm188.55-209.234c.058 11.393-9.128 20.675-20.518 20.733-11.39.057-20.669-9.132-20.727-20.524-.057-11.393 9.13-20.675 20.519-20.733 11.39-.058 20.67 9.131 20.726 20.524Zm-188.55 1.768c.058 11.393-9.128 20.675-20.519 20.733-11.389.058-20.668-9.131-20.726-20.524-.058-11.393 9.13-20.675 20.519-20.733 11.39-.058 20.67 9.132 20.726 20.524Zm0 54.814c.058 11.392-9.128 20.675-20.519 20.733-11.389.057-20.668-9.132-20.726-20.525-.058-11.393 9.13-20.675 20.519-20.733 11.39-.057 20.67 9.132 20.726 20.525Z" fill="#FD6234"/><path d="M1549.041 682.104h-81.868c-11.393 0-20.64-9.236-20.64-20.629 0-11.392 9.247-20.628 20.64-20.628h81.868c11.393 0 20.64 9.236 20.64 20.628 0 11.393-9.247 20.63-20.64 20.63Z" fill="#E5E0D5" fill-rule="nonzero"/><path d="M1580.286 732.792c0 11.392-9.239 20.628-20.622 20.628-11.384 0-20.623-9.236-20.623-20.628 0-11.393 9.239-20.629 20.623-20.629 11.383 0 20.622 9.236 20.622 20.629Z" fill="#FD6234"/><path d="M1344.545 183.774c0-19.013-15.409-34.426-34.416-34.426-19.007 0-34.416 15.413-34.416 34.426s15.409 34.426 34.416 34.426c11.404 0 20.65 9.248 20.65 20.655 0 11.408-9.246 20.656-20.65 20.656-41.816 0-75.715-33.908-75.715-75.737 0-41.829 33.899-75.737 75.715-75.737 41.817 0 75.715 33.908 75.715 75.737 0 11.407-9.251 20.656-20.65 20.656-11.404 0-20.65-9.249-20.65-20.656Z" fill="#463C74"/><path d="M1450.7 41.49c-18.948 0-34.3 15.413-34.3 34.426 0 19.012 15.352 34.425 34.3 34.425 11.36 0 20.58 9.248 20.58 20.656 0 11.407-9.22 20.655-20.58 20.655-41.682 0-75.462-33.908-75.462-75.736 0-41.829 33.78-75.737 75.462-75.737 11.36 0 20.58 9.248 20.58 20.655 0 11.408-9.22 20.656-20.58 20.656Z" fill="#E5E0D5" fill-rule="nonzero"/><path d="M1332.225 238.882c0 11.393-9.234 20.629-20.623 20.629-11.389 0-20.622-9.236-20.622-20.629 0-11.392 9.233-20.629 20.622-20.629 11.39 0 20.623 9.237 20.623 20.63Z" fill="#FD6234"/><path d="M1472.46 131.024c0 11.392-9.24 20.628-20.624 20.628-11.383 0-20.622-9.236-20.622-20.628 0-11.393 9.239-20.63 20.622-20.63 11.384 0 20.623 9.237 20.623 20.63Zm-84.848 107.858c0 11.393-9.24 20.629-20.623 20.629-11.39 0-20.623-9.236-20.623-20.629 0-11.392 9.234-20.629 20.623-20.629 11.384 0 20.623 9.237 20.623 20.63Zm54.797 0c0 11.393-9.239 20.629-20.623 20.629-11.383 0-20.622-9.236-20.622-20.629 0-11.392 9.239-20.629 20.622-20.629 11.384 0 20.623 9.237 20.623 20.63Z" fill="#463C74"/><path d="M1474.227 75.031c0 11.393-9.24 20.63-20.623 20.63-11.384 0-20.623-9.237-20.623-20.63 0-11.393 9.24-20.628 20.623-20.628 11.384 0 20.623 9.235 20.623 20.628Zm54.797 0c0 11.393-9.239 20.63-20.623 20.63-11.383 0-20.622-9.237-20.622-20.63 0-11.393 9.239-20.628 20.622-20.628 11.384 0 20.623 9.235 20.623 20.628Zm55.386 0c0 11.393-9.238 20.63-20.622 20.63s-20.623-9.237-20.623-20.63c0-11.393 9.24-20.628 20.623-20.628 11.384 0 20.623 9.235 20.623 20.628Z" fill="#FD6234"/><path d="M1508.99 442.811c-11.383 0-20.622-9.236-20.622-20.628 0-11.393 9.239-20.629 20.623-20.629 11.383 0 20.622 9.236 20.622 20.629 0 11.392-9.239 20.628-20.622 20.628Z" fill="#463C74"/></g></svg>