<svg width="1600" height="1200" xmlns="http://www.w3.org/2000/svg"><g fill="none"><path d="M-279.339 116.767c49.592 132.338 88.19 269.292 127.385 404.982 41.792 144.62 41.91 296.78 57.647 444.546 9.426 89.049 27.907 174.862 86.837 245.648 41.263 49.514 90.748 82.863 152.157 102.106 85.554 26.81 178.623 27.36 262.492 58.66 19.411 7.244 39.048 17.007 51.934 33.839 10.69 13.998 15.786 31.584 22.87 47.122 6.31 13.831 16.952 19.34 30.445 20.801 41.156 4.44 94.02-20.321 136.743-27.87 9.025-1.597 20.578-3.293 28.515-8.047 5.664-3.402 5.497-8.235 5.193-12.44-2.361-32.653-.881-66.914-9.063-99.087-9.378-36.878-32.778-62.384-64.78-78.422-54.874-27.447-125.651-29.486-187.992-40.368-61.527-10.783-123.465-22.546-182.445-43.67-49.925-17.852-96.714-43.133-136.047-79.011C53.283 1040.57 26.67 978.43 10.315 915.693-29.86 761.378-26.528 595.995-64.88 439.406c-19.078-77.913-43.252-155.188-67.093-231.757-20.41-65.571-42.194-131.71-71.62-193.292-8.28-17.34-18.382-40.681-36.814-49.994-8.946-4.519-17.971-3.695-26.604-2.068-12.817 2.421-25.693 8.156-33.385 18.968-25.477 35.76 6.134 100.293 21.058 135.455" fill="#137D9F"/><path d="M-181.444 10.76c30.409 70.346 54.266 143.29 76.739 216.4 14.763 48.041 28.948 96.308 43.21 144.515 21.768 73.533 34.873 148.869 45.536 224.646C-4.384 678.56 4.955 761.935 21.533 842.948c18.815 91.935 49.047 179.644 124.286 241.342 59.838 49.022 133.183 75.993 207.352 94.827 46.105 11.697 92.857 20.374 139.638 28.61 43.633 7.686 89.266 11.686 130.466 29.04 55.414 23.344 81.664 69.15 108.64 119.102 9.996 18.51 26.485 31.276 44.456 40.747 43.074 22.707 93.573 32.854 142.238 40.874 6.356 1.049 12.948 2.078 19.766 2.853 13.574 1.529 27.247 2 40.895 1.412.981 0 1.962-.069 2.943-.138 9.574-.715 20.934-1.303 29.37-6.745 4.983-3.216 4.826-8.47 3.923-13.657-17.588-97.73-41.817-200.008-127.64-257.52-51.01-34.197-114.889-38.805-175.06-48.256-69.039-10.785-138.313-21.893-206.342-36.639-83.479-18.089-169.508-40.835-244.256-84.258-78.27-45.482-120.215-114.073-148.78-197.174-36.59-106.445-52.206-220.097-73.669-331.11-21.385-110.622-54.09-217.773-87.697-325.003-20.207-64.463-41.268-130.044-70.55-190.027-8.534-17.48-18.412-34.844-32.9-48.511-10.437-9.893-23.406-19.697-37.58-23.05-9.045-2.108-22.366.774-28.134 8.745-10.859 14.981-1.098 38.09 4.69 53.238 9.004 23.53 20.256 46.325 30.997 69.11" fill="#0ABBAB"/><path d="M-112.09-69.59C-80.944-6.744-57.866 59.52-36.543 126.099c14.705 46.05 28.705 92.504 42.88 138.75 22.95 74.887 38.47 151.616 53.773 228.364 16.725 83.813 34.381 168.047 60.253 249.097 15.225 47.678 33.734 95.267 60.204 138.27 27.038 43.906 67.546 75.534 112.31 100.02 91.173 49.852 195.737 73.936 296.832 94.061 54.165 10.778 108.663 19.753 163.18 28.522 50.842 8.182 103.448 12.738 150.27 35.803 74.262 36.488 116.985 107.396 156.484 176.708 13.392 23.515 30.96 43.71 50.665 61.67 43.234 39.397 88.987 70.673 144.661 90.808a169.846 169.846 0 0 0 21.333 6.613c12.647 2.724 25.97 4.566 39.028 1.96.765-.147 1.51-.333 2.225-.52 9.5-2.517 13.725-7.563 15.931-14.814 1.422-4.664-.304-10.964-2.764-17.47-45.097-119.301-89.409-254.31-194.886-331.792-54.449-39.996-119.878-45.542-185.758-55.036-81.8-11.758-163.798-23.584-244.893-38.507-103.78-19.086-210.943-41.073-307.46-85.821-46.076-21.38-89.663-50.784-120.074-92.19-26.028-35.46-45.772-76.269-62.507-116.51-43.077-103.624-69.155-213.911-96.899-322.974C91.697 296.682 58.551 194.763 24.484 92.726 5.387 35.534-13.995-22.784-41.004-75.801c-8.343-16.393-18.313-32.207-30.734-46.208-15.196-17.127-32.44-36.655-52.704-45.767-8.186-3.674-21.107-9.21-29.41-4.262-19.118 11.356 33.596 87.124 41.782 102.546" fill="#B2CD0D"/><path d="M-37.539-105.102C-4.882-48.61 18.641 12.039 40.056 73.365c15.696 44.892 30.538 90.43 45.35 135.587 24.82 75.643 42.712 153.855 62.871 230.89 22.749 86.949 49.579 173.476 84.364 256.12 19.462 46.206 41.505 92.716 71.081 133.773 34.03 47.225 82.834 79.075 135.698 101.736 111.831 47.922 235.218 69.76 354.554 89.656 62.664 10.443 125.564 19.474 188.435 28.437 48.539 6.923 100.697 9.482 146.381 28.506 90.004 37.488 145.87 125.515 193.37 205.747 14.97 25.31 31.312 49.795 48.607 73.643 32.706 45.107 67.334 102.756 118.904 127.977 4.905 2.422 10.153 4.834 15.156 5.883 10.584 2.305 18.638-1.5 22.67-7.668.355-.498.683-1.015.981-1.55 3.983-7.795 2.443-20.17.834-28.181a95.534 95.534 0 0 0-7.171-20.593c-61.566-131.399-138.827-274.614-258.977-357.2-53.767-36.949-113.793-43.518-178.479-51.922-81.891-10.64-164.185-19.347-245.783-30.86-104.738-14.777-213.381-31.476-311.547-73.299C431.72 879.294 374.4 804.847 336.76 711.24c-40.435-100.57-61.448-208.238-88.964-313.338-26.457-100.805-64.49-196.815-102.325-293.599C124.459 50.567 102.72-4.141 73.958-53.229A258.943 258.943 0 0 0 40.41-97.964c-23.798-25.74-49.873-50.863-79.802-69.249-12.655-7.776-26.702-16.464-41.064-20.308-16.676-4.462 3.493 23.622 5.955 27.3 12.311 18.386 25.378 36.223 36.924 55.119" fill="#EAE9F9"/><path d="M72.55-93.571c39.826 53.12 71.621 110.877 98.25 171.212 19.099 43.298 35.07 88.802 52.08 132.57 28.6 73.52 42.698 153.5 59.326 231.264 18.737 87.636 39.012 176.535 71.052 259.77 17.815 46.238 38.237 91.32 71.896 128.943 36.648 40.955 82.925 68.854 134.084 88.008 105.298 39.348 220.176 52.091 331.23 64.246 58.208 6.401 116.524 11.852 174.723 18.35 49.021 5.48 102.533 7.53 149.231 24.507 92.406 33.545 165.458 115.554 227.598 188.093 20.972 24.506 42.532 48.591 64.032 72.54 51.1 56.854 98.642 133.57 175.341 158.233 7.844 2.53 16.256 4.745 24.629 4.835 14.392.135 32.001-5.952 39.864-19.157a25.044 25.044 0 0 0 1.451-2.715c6.265-14.174.157-29.516-4.814-43.131-3.03-8.293-8.422-16.822-13.628-23.919-57.002-77.784-127.652-148.911-200.871-212.824-77.18-67.452-160.39-131.061-250.226-178.927-30.63-16.302-63.023-31.712-97.063-40.417-31.698-8.097-65.885-9.41-98.426-11.557-74.444-4.901-149.271-5.137-223.666-7.842-93.74-3.343-192.165-7.362-281.502-39.21-44.796-15.969-86.112-41.809-117.74-77.608-29.247-33.113-42.718-77.039-50.67-119.523-18.589-99.154-10.716-202.012-16.285-302.783-2.774-50.258-8.323-100.771-21.697-149.412-12.294-44.73-33.119-86.527-54.06-127.502-26.472-51.837-56.091-103.398-92.24-148.147a266.234 266.234 0 0 0-40.982-40.397c-34.168-27.29-71.19-53.59-112.475-68.942-14.923-5.548-31.482-10.077-46.757-11.812-22.168-2.529-2.157 23.056 2.765 29.212 14.706 18.4 30.932 35.534 45.55 54.012" fill="#FE9572"/><path d="M202.308-122.95c52.776 48.793 99.816 102.693 137.001 163.493 24.418 39.923 48.05 83.845 60.504 128.472 21.064 75.474 15.69 158.789 13.729 238.046-2.167 87.392-5.305 176.225 9.12 261.236 7.786 45.882 24.927 88.216 60.21 120.836 33.124 30.65 73.222 51.224 116.428 63.525 90.942 25.877 188.846 23.652 282.505 22.603 50.315-.568 100.64-1.686 150.956-.803 45.284.793 93.57.568 137.776 11.468C1293.643 916.31 1408.1 995.882 1510.81 1066.6c36.224 24.946 72.85 49.744 108.75 75.072 57.856 40.805 112.77 86.109 170.303 127.668 49.727 35.933 103.7 68.21 164.244 80.64 13.071 2.685 27.202 4.998 40.028 3.596 17.995-1.96 44.677-8.537 47.658-31.248.181-1.298.244-2.61.186-3.92-.98-22.417-22.475-42.687-36.841-57.507a358.091 358.091 0 0 0-28.82-26.26c-103.347-85.725-220.923-158.111-338.175-225.44-119.85-68.71-243.79-133.588-371.869-183.557-71.33-27.827-139.688-46.794-216.95-46.069-64.957.638-129.717 8.636-194.163 14.703-79.89 7.528-165.086 15.771-243.388-7.44-41.598-12.33-80.352-36.1-109.476-68.386-29.418-32.542-37.822-77.346-37.47-118.886.834-98.723 35.636-197.995 53.572-296.7 8.502-46.783 14.827-94.714 11.306-142.34-3.422-46.265-20.083-85.913-40.803-126.443-28.173-55.164-61.514-108.947-101.71-155.29a282.987 282.987 0 0 0-45.441-41.941c-44.128-32.66-94.894-61.604-151.368-66.25-17.837-1.47-38.734-.677-55.022 7.224-46.108 22.357 50.423 84.599 66.947 99.223" fill="#F75F68"/><path d="M333.997-220.529C395.21-167.748 452.304-110.192 495.46-42.647 521.492-1.894 547.857 44.82 555.125 92.13c12.476 81.162-13.82 169.107-34.016 249.877-21.784 87.103-54.357 182.343-45.118 270.18 4.551 43.46 21.579 78.585 57.389 106.926a237.782 237.782 0 0 0 108.587 47.83c76.505 12.823 156.119-2.264 231.701-14.704 79.28-13 161.405-28.803 242.02-19.803 57.153 6.372 113.305 28.93 166.486 49.634 80.153 31.214 158.482 67.27 235.654 104.896 49.276 24.008 98.661 48.419 147.31 73.692 96.72 50.242 191.105 105.425 286.824 157.893 70.688 38.752 145.702 80.926 224.982 97.631 11.005 2.314 23.187 4 34.192 1.775 23.265-4.716 13.938-34.773 7.19-47.243a53.513 53.513 0 0 0-3.335-5.186c-20.333-28.91-51.572-50.977-80.35-70.358-13.417-9.059-27.522-17.842-41.46-26.361-132.411-80.957-271.826-152.61-412.32-219.733-129.832-62.036-262.225-122.218-398.217-168.451-67.373-22.9-130.616-40.566-202.315-35.174-58.624 4.411-116.336 17.557-173.773 28.94-71.876 14.243-148.9 29.586-221.893 13.165-39.332-8.823-77.25-29.557-105.587-58.31-31.484-31.94-39.802-75.349-37.948-117.288 4.375-98.631 48.463-197.557 78.672-294.257 14.968-47.87 29.121-97.004 33.349-147.188 3.727-43.84-4.002-81.426-23.03-120.248A603.878 603.878 0 0 0 528.72-196.707a487.092 487.092 0 0 0-45.903-42.595c-51.739-42.478-112.884-79.868-178.805-96.161-16.625-4.098-38.94-7.755-54.927.049-49.61 24.214 68.472 101.131 84.92 114.885" fill="#7158D1"/><path d="M1119.441-439.638c58.666 39.538 75.948 95.485 87.165 162.03 13.74 81.285 34.181 160.94 70.04 234.758 23.553 48.567 54.712 109.46 100.855 141.314 53.318 36.8 132.426 18.704 188.717 2.492 83.72-24.111 170.542-62.08 246.059-108.036 29.647-18.037 46.467-27.733 75.457-6.673 4.112 2.944 9.333 7.154 14.986 4.2 4.347-2.267 7.85-8.273 11.256-13.886A277.093 277.093 0 0 1 1939-58.768c8.41-9.99 18.999-22.62 18.999-36.535 0-9.136-4.465-15.564-8.243-20.363-6.576-8.371-21.012-33.278-34.78-27.654-11.64 4.76-22.336 14.828-33.367 22.129-28.99 19.244-59.961 36.094-90.717 51.55-103.328 51.943-252.702 114.582-357.306 31.08-73.22-58.47-121.975-135.73-139.11-226.692-11.471-60.932-18.714-121.687-51.178-175.66-12.159-20.207-28.46-36.654-48.538-47.832-20.491-11.383-51.198-16.212-73.19-4.504-19.108 10.206-19.01 41.04-2.13 53.61Z" fill="#0ABBAB"/><path d="M1007.744-419.984c-14.71.275-24.418 15.328-19.416 28.265a17.856 17.856 0 0 0 4.305 6.223c32.469 29.479 59.436 67.328 73.45 108.616 6.168 18.2 11.15 37.006 15.817 55.774 8.826 35.447 17.936 71.1 26.134 106.686 9.11 39.524 17.652 79.539 27.458 118.858a1817.47 1817.47 0 0 0 13.73 51.637c15.072 52.922 33.606 105.461 58.543 154.208 18.387 35.957 40.265 66.955 82.678 75.462 42.795 8.575 90.003-1.362 130.964-11.662 113.362-28.529 224.37-81.176 332.967-127.169 19.309-8.173 41.618-20.08 61.594-18.11 16.67 1.646 32.36 10.24 48.326 18.257 3.353 1.676 7.04 3.4 10.61 3.793a8.604 8.604 0 0 0 7.179-2.225c3.334-3.146 5.06-9.888 6.413-16.582 2.187-10.78 4.256-21.649 6.276-32.478.716-3.793 1.412-7.536 2.148-11.202 2.765-13.838 4.962-29.303.647-43.121a54.61 54.61 0 0 0-13.072-21.56c-11.827-12.663-29.586-34.566-50.013-30.225-15.347 3.264-29.958 11.594-44.197 18.395-31.998 15.27-64.507 29.725-96.701 44.415-38.343 17.504-77.343 34.527-116.696 48.913-60.015 21.914-132.494 46.826-197.776 35.282-57.073-10.144-94.317-61.419-122.942-106.559-37.745-59.517-59.692-126.933-75.157-196.163-7.168-32.056-12.346-65.054-19.681-96.846-6.364-27.598-14.827-55.068-27.654-79.765a155.638 155.638 0 0 0-40.089-49.393c-22.711-18.572-56.18-32.282-85.845-31.724Z" fill="#FFD300"/><path d="M886.104-372.722c-10.091-.98-28.202-.089-28.104 14.885a9.675 9.675 0 0 0 1.708 4.988c23.225 38.797 55.362 70.989 73.542 112.696 8.373 19.217 15.705 39.199 22.508 59.072 12.76 37.601 24.942 76.251 35.769 114.195 12.133 42.511 20.8 86.874 29.91 130.58 4.161 19.923 8.304 39.895 12.603 59.778 13.144 60.67 27.926 121.516 48.785 179.657 14.499 40.414 29.704 90.049 66.543 116.547 38.115 27.439 89.433 21.344 132.515 14.592 146.995-23.079 284.565-92.333 429.871-126.572 28.81-6.782 61.4-16.572 90.16-9.31 23.637 5.978 46.204 19.374 68.898 28.87 4.359 1.822 9.12 3.4 13.507 3.635 3.092.167 5.948-.578 8.01-3.106 2.807-3.43 3.651-10.349 3.671-17.444 0-11.828-.658-23.744-1.767-35.582-.383-4.135-.883-8.251-1.345-12.24-1.717-14.993-4.505-30.849-11.308-44.324a82.236 82.236 0 0 0-17.187-22.294c-19.142-17.443-39.863-36.611-67.73-35.278-19.633.98-38.676 8.045-57.169 13.964-36.486 11.671-72.402 24.323-107.976 38.405-42.14 16.66-84.417 34.22-126.88 49.772-67.417 24.676-144.295 52.575-217.591 49.91-73.885-2.685-103.814-62.718-131.858-121.467-38.675-81.043-61.478-169.122-81.002-257.29-8.206-37.042-16.981-74.114-26.375-110.735-7.44-29.017-15.774-58.288-27.946-85.041a197.861 197.861 0 0 0-35.72-53.438c-24.982-26.704-62.754-54.123-98.042-57.425Z" fill="#FE9572"/><path d="M757.676-347.052c-12.88-5.24-30.959-12.262-44.525-7.199a2.99 2.99 0 0 0-2.03 2.194c-1.963 15.574 20.599 35.31 29.722 46.339 17.392 20.95 35.44 41.823 50.027 64.644a799.515 799.515 0 0 1 35.697 61.706 886.204 886.204 0 0 1 53.45 126.635c14.823 44.33 26.123 87.172 31.49 133.813 2.354 20.49 4.08 41.333 5.64 62 4.699 62.068 7.583 125.204 19.325 185.862 8.828 45.555 21.384 95.918 46.447 136.145 26.662 42.802 70.628 65.33 118.056 70.521 171.909 18.904 347.065-81.599 519.2-99.445 57.708-5.984 114.151 7.503 166.877 30.422 51.263 22.273 100.261 56.241 153.153 75.478 6.21 2.252 11.624 3.516 15.244 2.674 2.53-.598 3.973-2.557 3.443-7.14-.618-5.378-4.1-14.31-8.181-23.625-6.64-15.162-13.733-30.305-20.943-45.193-2.472-5.083-4.905-9.98-7.279-14.692-8.102-16.288-16.303-33.4-27.132-47.572a162.193 162.193 0 0 0-22.778-24.653c-26.818-23.086-55.913-45.937-92.492-49.365-61.328-5.75-132.75 14.986-190.184 31.539-45.29 13.056-90.59 28.287-135.82 42.117-75.229 22.929-154.988 46.867-234.503 48.052-36.089.539-70.55-7.395-96.77-33.556-25.249-25.192-38.727-61.08-52.146-93.127-40.091-95.743-65.124-197.293-90.511-298.197-10.79-43.018-24.318-85.37-36.874-127.928-9.456-32.116-19.265-64.556-32.312-94.92a286.406 286.406 0 0 0-34.803-60.118c-30.419-40.178-72.315-74.625-118.487-93.412Z" fill="#EAE9F9"/><path d="M603.663-361.513c-17.476-9.251-37.375-18.845-57.656-21.246a28.653 28.653 0 0 0-5.708-.167c-19.114.784 19.36 35.28 22.851 38.553 22.066 20.795 45.515 40.454 66.188 62.435 18.114 19.266 35.767 39.513 52.047 60.269 30.97 39.512 58.323 82.573 79.438 128.044 21.114 45.471 28.146 88.659 25.174 138.471-1.274 21.462-4.07 43.404-7.345 64.826-10.023 65.355-26.185 131.112-33.648 196.624-5.394 47.235-5.424 94.843 3.481 142.156 9.964 53.007 35.777 94.078 81.33 119.43 89.756 49.862 206.657 26.793 305.797 4.695 91.206-20.315 190.258-58.045 284.77-51.45 115.282 8.046 231.38 64.846 333.08 114.796 60.087 29.507 119.401 61.415 178.715 92.863 46.662 24.754 93.854 52.458 142.625 70.823 8.65 3.264 18.368 7.242 27.803 7.391 4.413.067 7.237-1.874 6.169-7.126-1.766-8.673-7.336-17.238-11.769-24.911-10.268-17.699-22.39-34.868-34.835-51.342a716.123 716.123 0 0 0-13.24-16.963c-15.034-18.688-30.97-37.073-48.594-53.115a478.395 478.395 0 0 0-42.475-34.3c-68.718-49.43-143.184-92.06-221.876-121.586-42.69-16.032-87.892-29.194-134.024-32.722-41.465-3.165-84.038 3.685-124.198 11.966-45.407 9.369-90.794 22.118-135.937 33.829-75.897 19.707-153.864 39.033-232.929 38.582-37.61-.216-75.828-7.595-107.133-29.4-33.697-23.52-52.252-57.093-65.933-93.862-38.964-104.8-46.82-217.84-57.794-330.195-5.325-54.458-14.936-105.28-33.079-156.729-12.75-36.073-27.372-72.127-45.172-105.7a471.957 471.957 0 0 0-42.71-66.15c-41.023-53.33-94.756-97.753-153.413-128.789Z" fill="#1DAACC"/><path d="M674.233 36.79c-7.613 91.143-47.345 181.07-76.648 268.694-28.725 85.899-64.464 198.592-14.216 277.023 43.235 67.475 142.378 84.517 221.273 79.5 81.338-5.185 160.508-27.627 239.972-44.19 37.005-7.713 74.372-14.582 112.142-17.072 42.734-2.803 81.81 3.92 122.817 15.857 151.266 44.101 296.273 114.8 436.414 185.097 107.983 54.186 214.642 111.82 321.78 168.153 40.979 21.56 81.996 43.12 123.817 63.044 25.037 11.908 51.691 25.844 79.16 30.587 6.956 1.205 12.597.46 13.097-3.92 2.492-21.815-24.967-51.5-39.32-68.082-24.231-28-54.35-51.393-84.585-73.1-182.797-131.265-392.758-237.401-604.81-315.803-66.514-24.589-141.583-54.42-213.729-53.176-60.108 1.039-119.539 15.465-177.832 28.862-126.554 29.087-353.547 82.665-405.395-76.638-27.586-84.772-14.95-182.941-1.657-273.427 12.488-85.115 37.7-179.53 21.14-264.263-13.184-67.475-58.008-133.93-102.42-185.862-51.386-60.065-117.9-107.704-189.458-141.182-19.993-9.35-42.88-19.12-65.376-19.855-38.26-1.255-7.014 29.998 5.886 40.994 25.242 21.502 53.957 38.897 79.464 59.782 63.081 51.627 121.56 110.33 162.362 180.569C664.11-56.831 678.57-15.131 674.233 36.79Z" fill="#EAE9F9"/></g></svg>