<svg xmlns="http://www.w3.org/2000/svg" width="86" height="32"><path fill="#FFC482" d="M48.781 1.158c-2.463.572-3.686 1.87-3.698 3.924-.014 2.392 1.326 3.49 5.622 4.61 2.088.544 2.798 1.487 1.81 2.403-1.121 1.039-3.315.365-3.591-1.104-.137-.733-.13-.731-2.431-.603l-2.039.113.098.642c.151.99.968 2.518 1.664 3.114 2.063 1.765 7.744 1.584 9.689-.31l.569-.554.109.644c.4 2.369 2.806 4.595 5.574 5.157l.889.181-.525.688c-1.733 2.27-1.782 6.912-.098 9.323 2.577 3.689 9.829 3.582 12.215-.18l.444-.7v3.339h11.239v-3.59h-6.712V17.796h-4.527l-.009 1.6c-.008 1.307-.043 1.544-.195 1.295-.86-1.411-2.535-2.583-4.177-2.922l-.885-.183.898-.675c2.794-2.1 4.534-5.931 4.087-8.998-1.175-8.06-12.785-8.185-17.207-.186l-.54.973c-.012.02-.41-.34-.885-.799-.985-.954-1.776-1.303-4.465-1.969-2.502-.62-3.014-1.055-2.173-1.846.8-.752 2.542-.265 2.934.821.23.636.188.63 2.848.454l1.538-.102-.098-.613c-.454-2.84-4.028-4.404-7.973-3.487zM.937 8.273v7.024h4.527v-5.62h.46c.726 0 1.165.534 2.565 3.122l1.309 2.419 2.517.043c1.384.024 2.516.001 2.516-.05 0-.791-2.821-5.356-3.604-5.832l-.429-.261.866-.453c3.211-1.681 2.603-6.497-.916-7.252-.444-.095-2.693-.166-5.292-.166H.937v7.024zm68.539-5.801c7.065 1.844 6.418 11.756-1.004 15.375-7.562 3.687-14.301-2.366-10.707-9.616 2.097-4.23 7.461-6.868 11.71-5.758zM8.583 4.415c1.59.804.535 2.288-1.717 2.416l-1.402.08V4.214l1.366.002c.782.001 1.531.086 1.753.198zm58.394 1.242c-1.243.33-2.507 1.586-2.508 2.492-.002 1.48 1.181 2.014 3.043 1.373 1.139-.392 1.429-.392 1.64.001.357.668-.813 1.349-1.496.87-.343-.24-1.608.517-1.621.97-.02.682 1.706.94 2.763.413 3.357-1.673 2.404-5.264-1.078-4.063-1.392.48-1.691.501-1.691.115 0-.606.947-1.044 1.36-.631.169.169 1.449-.68 1.449-.961 0-.42-1.134-.774-1.862-.58zm-5.039 3.368c-.745.539-.78.399.586 2.338.841 1.193 1.164 1.782 1.132 2.061-.056.477-.591.604-.967.229-.239-.239-.301-.22-.867.265-1.429 1.224.743 2.275 2.357 1.141 1.773-1.246 1.776-2.019.013-4.593-1.367-1.997-1.43-2.037-2.255-1.44zm-57.3 8.618c-2.554.403-4.049 1.896-4.069 4.064-.02 2.212 1.414 3.472 4.966 4.361 2.177.545 2.894.961 2.894 1.678 0 2.019-3.614 1.817-3.996-.223-.134-.712-.117-.708-2.422-.583l-2.044.111.102.64c.466 2.934 2.172 4.155 5.973 4.274 3.014.094 4.05-.198 5.366-1.514l.901-.901.331.447c1.915 2.59 8.384 2.764 10.508.282.621-.725 1.318-2.091 1.389-2.72.05-.443.036-.451-1.857-1.025l-1.907-.579-.256.77c-.872 2.625-4.165 2.655-4.888.045-.246-.887-.216-3.006.056-3.919.656-2.207 3.427-2.66 4.551-.743.469.8.343.785 2.471.304 2.026-.458 1.939-.377 1.477-1.372-1.832-3.942-7.991-4.867-11.257-1.692l-.911.886-.378-.645c-.942-1.608-3.913-2.434-6.998-1.946zm43.128.004c-1.729.3-3.437 1.388-4.402 2.803-.258.379-.265.348-.273-1.133l-.008-1.522h-4.527v4.839h-4.527v-4.839h-4.527v14.049h4.527v-5.62h4.527v5.62h4.527v-3.176l.489.737c2.034 3.07 8.325 3.609 11.188.958 3.313-3.067 2.663-10.044-1.115-11.972-1.458-.744-4.017-1.068-5.879-.745zm-40.59 2.878c.261.135.567.501.733.877l.285.646 3.05-.147-.1.796c-.132 1.053-.191 1.093-1.066.706-.412-.182-1.565-.535-2.564-.786-2.363-.592-2.657-.719-2.778-1.2-.224-.89 1.339-1.462 2.441-.892zm43.267.552c2.312.642 2.78 5.948.636 7.21-1.601.942-3.627.14-4.102-1.625-.944-3.507.805-6.324 3.466-5.585zm18.873-.004c2.686.746 2.631 6.782-.068 7.509-2.17.584-3.614-.924-3.603-3.762.012-2.949 1.409-4.375 3.671-3.746z"/></svg>