<svg width="1600" height="1200" xmlns="http://www.w3.org/2000/svg"><g fill="none"><path d="M1196.178 790.754C743.691 816.805 939.878 1387.062 1330 1583c-345.108 0-1142-325.082-1142-722.591C188 462.899 226.208 71 571.31 71c345.108 0 624.868 322.245 624.868 719.754Z" fill="#0AB7E0"/><path d="M1953-133.75C1953 326.994 1695.975 496 1419.18 496 1142.385 496 918 122.494 918-338.25S1175.02-968 1451.82-968C1728.615-968 1953-594.494 1953-133.75Z" fill="#E16197"/><path d="M944.936-1071.961c632.679 63.285 870.411 882.144 825.84 1330.009-44.57 447.864-298.965-59.482-931.644-122.766-632.678-63.285-528.038-214.856-483.467-662.72-449.688 95.112-43.407-607.815 589.271-544.523Z" fill="#2E39A9"/><path d="M1249.189-578.078c345.265 34.447 444.658 705.758 420.332 949.506-24.326 243.749-163.15-32.369-508.416-66.815-345.266-34.441-530.66-148.365-506.34-392.113 24.326-243.748 249.158-525.018 594.424-490.578Z" fill="#F4F3EF" opacity=".1"/><path d="M1215.03-398.343c226.602 22.613 51.95 565.256 30.506 780.176-21.438 214.92-106.715-24.842-333.323-47.455C685.61 311.76 367.592 221.571 389.029 6.657c21.438-214.92 599.392-427.613 826-405Z" fill="#0AB7E0"/><path d="M1703.564 340.059c235.403 424.406-10.217 1054.31-288.992 1209.927-278.78 155.61-673.288-307.02-870.972-660.89-197.678-353.867 172.37-1097.8 613.24-988.183 230.066 57.207 431.764 231.886 546.724 439.146Z" fill="#9844AF"/><path d="M1681.939 951.752c12.778 292.39-90.801 499.8-260.264 594.444-169.463 94.644-416.539-168.168-529.442-401.946-240.85-498.716 83.042-1163.274 435.8-894.354 216.442 165 342.006 429.492 353.906 701.856Z" fill="#F4F3EF" opacity=".1"/><path d="M1910.173 809.106c12.771 292.453-124.567 579.498-260.125 594.572-187.008 20.785-239.411-207.619-244.896-395.864-5.63-193.266 146.182-691.79 244.896-259.23 72.93 319.57 248.231-211.901 260.125 60.522Z" fill="#E2164B"/><path d="M1303.178 854.957C1126.424 1195.657 381.05 1622.95-318.002 1451-1017.053 1279.049-.714 1188.462-.714 791.238-.714 394.014 223.696 72 568.257 72c148.178 0 284.275 59.5 391.293 158.976 221.323 141.442 452.728 413.688 343.628 623.98Z" fill="#FF612E"/><path d="M203.636 940.846c-398.47 100.854-980.69 64.016-872.455-239.435C-489.833 199.62-56.728-135.944 479-68.357c210.788 26.588 412.496 191.675 512.944 345.21 231.01 353.102-180.308 510.102-788.308 663.993Z" fill="#FFCD00"/><path d="M77.458-377.818c396.924 74.375 939.47 397.173 705.131 871.286C652.641 756.378 71.067 977.97-130.433 887.97-464.438 738.787-562.794-497.784 77.457-377.818Z" fill="#B2CD0D"/><path d="M366.132 611.514C130.755 947.667-619.575 1159.192-943.042 932.697-1266.515 706.2-1040.632 127.453-805.255-208.7c235.373-336.148 547.088-525.169 870.56-298.671 323.468 226.494 536.2 782.737 300.827 1118.886Z" fill="#0AB7E0"/><path d="M41.775 666.954c-299.784 279.553-1015.662 395.965-1235.72 159.982-220.057-235.983-109.986-804.309 189.797-1083.861 299.78-279.549 874.403-349.711 1094.46-113.728C310.37-134.67 341.555 387.405 41.776 666.954Z" fill="#2E39A9"/></g></svg>