<svg width="79" height="79" fill="none" xmlns="http://www.w3.org/2000/svg"><g filter="url(#a)"><path d="M4 35.355 39.355 0l35.356 35.355-35.356 35.356L4 35.355Z" fill="#FFC482"/></g><g filter="url(#b)"><path d="m42.775 35.355.144-11.7-.144-13.428.828-.072c.552-.048 1.272-.108 2.16-.18a90.683 90.683 0 0 1 2.916-.18 67.447 67.447 0 0 1 3.06-.072c2.352 0 4.176.72 5.472 2.16 1.296 1.44 1.944 3.6 1.944 6.48 0 1.8-.24 3.288-.72 4.464-.456 1.152-1.08 2.064-1.872 2.736a7.176 7.176 0 0 1-2.592 1.404c-.96.264-1.956.396-2.988.396-.84 0-1.656-.024-2.448-.072a51.498 51.498 0 0 1-1.548-.108v8.172h-4.212Zm8.388-11.448c1.344 0 2.232-.204 2.664-.612.336-.336.576-.936.72-1.8.144-.864.216-2.016.216-3.456 0-1.176-.06-2.064-.18-2.664-.12-.6-.264-1.02-.432-1.26-.144-.264-.288-.456-.432-.576-.192-.144-.54-.264-1.044-.36-.48-.12-1.068-.18-1.764-.18-.768 0-1.512.036-2.232.108-.696.072-1.26.144-1.692.216v10.224c.192.048.684.12 1.476.216.816.096 1.716.144 2.7.144Z" fill="#66999B"/></g><g filter="url(#c)"><path d="m23.775 59.355.144-11.7-.144-13.428.828-.072c.552-.048 1.272-.108 2.16-.18a90.683 90.683 0 0 1 2.916-.18 67.447 67.447 0 0 1 3.06-.072c2.352 0 4.176.72 5.472 2.16 1.296 1.44 1.944 3.6 1.944 6.48 0 1.8-.24 3.288-.72 4.464-.456 1.152-1.08 2.064-1.872 2.736a7.176 7.176 0 0 1-2.592 1.404c-.96.264-1.956.396-2.988.396-.84 0-1.656-.024-2.448-.072a51.498 51.498 0 0 1-1.548-.108v8.172h-4.212Zm8.388-11.448c1.344 0 2.232-.204 2.664-.612.336-.336.576-.936.72-1.8.144-.864.216-2.016.216-3.456 0-1.176-.06-2.064-.18-2.664-.12-.6-.264-1.02-.432-1.26-.144-.264-.288-.456-.432-.576-.192-.144-.54-.264-1.044-.36-.48-.12-1.068-.18-1.764-.18-.768 0-1.512.036-2.232.108-.696.072-1.26.144-1.692.216v10.224c.192.048.684.12 1.476.216.816.096 1.716.144 2.7.144Z" fill="#fff"/></g><defs><filter id="a" x="0" y="0" width="78.711" height="78.711" filterUnits="userSpaceOnUse" color-interpolation-filters="sRGB"><feFlood flood-opacity="0" result="BackgroundImageFix"/><feColorMatrix in="SourceAlpha" values="0 0 0 0 0 0 0 0 0 0 0 0 0 0 0 0 0 0 127 0" result="hardAlpha"/><feOffset dy="4"/><feGaussianBlur stdDeviation="2"/><feComposite in2="hardAlpha" operator="out"/><feColorMatrix values="0 0 0 0 0 0 0 0 0 0 0 0 0 0 0 0 0 0 0.25 0"/><feBlend in2="BackgroundImageFix" result="effect1_dropShadow"/><feBlend in="SourceGraphic" in2="effect1_dropShadow" result="shape"/></filter><filter id="b" x="38.775" y="9.723" width="24.38" height="33.632" filterUnits="userSpaceOnUse" color-interpolation-filters="sRGB"><feFlood flood-opacity="0" result="BackgroundImageFix"/><feColorMatrix in="SourceAlpha" values="0 0 0 0 0 0 0 0 0 0 0 0 0 0 0 0 0 0 127 0" result="hardAlpha"/><feOffset dy="4"/><feGaussianBlur stdDeviation="2"/><feComposite in2="hardAlpha" operator="out"/><feColorMatrix values="0 0 0 0 0 0 0 0 0 0 0 0 0 0 0 0 0 0 0.25 0"/><feBlend in2="BackgroundImageFix" result="effect1_dropShadow"/><feBlend in="SourceGraphic" in2="effect1_dropShadow" result="shape"/></filter><filter id="c" x="19.775" y="33.723" width="24.38" height="33.632" filterUnits="userSpaceOnUse" color-interpolation-filters="sRGB"><feFlood flood-opacity="0" result="BackgroundImageFix"/><feColorMatrix in="SourceAlpha" values="0 0 0 0 0 0 0 0 0 0 0 0 0 0 0 0 0 0 127 0" result="hardAlpha"/><feOffset dy="4"/><feGaussianBlur stdDeviation="2"/><feComposite in2="hardAlpha" operator="out"/><feColorMatrix values="0 0 0 0 0 0 0 0 0 0 0 0 0 0 0 0 0 0 0.25 0"/><feBlend in2="BackgroundImageFix" result="effect1_dropShadow"/><feBlend in="SourceGraphic" in2="effect1_dropShadow" result="shape"/></filter></defs></svg>