<svg xmlns="http://www.w3.org/2000/svg" width="400" height="400"><path d="M186.122.431C65.718 9.229-19.683 121.126 3.905 239.184c21.612 108.166 127.16 178.563 235.279 156.92C347.4 374.442 417.679 269.06 396.098 160.816 376.49 62.465 285.744-6.849 186.122.431m28.368 32.223c87.628 7.969 153.061 79.51 153.061 167.346 0 60.166-30.304 113.686-81.796 144.458-9.616 5.747-32.517 15.95-35.8 15.95-.088 0-.16-7.944-.161-17.653-.002-27.827-2.591-36.488-13.457-45.025l-2.527-1.985 5.646-.708c49.921-6.252 76.207-29.429 82.555-72.792 4.367-29.826-.573-52.256-15.406-69.948-2.857-3.407-2.801-3.2-1.721-6.339 4.188-12.173 3.742-27.907-1.214-42.81l-1.69-5.082-2.112-.254c-10.574-1.27-27.78 5.118-46.571 17.291-4.419 2.862-3.732 2.78-10.109 1.215-26.265-6.447-58.784-6.44-84.564.019-6.213 1.557-5.167 1.776-11.825-2.476-15.051-9.61-29.665-15.371-40.881-16.115-5.998-.397-5.938-.44-7.915 5.637-4.982 15.313-5.358 30.129-1.085 42.758l1 2.958-2.045 2.287c-11.223 12.553-16.963 28.367-17.396 47.932-1.276 57.564 26.646 89.171 84.658 95.833l4.564.524-3.468 3.245c-10.407 9.737-12.367 17.32-12.386 47.917-.005 8.179-.163 13.979-.382 13.979-.776 0-12.643-4.252-16.762-6.006-54.599-23.249-92.917-73.07-101.015-131.341C20.356 127.547 89.971 40.692 186.735 32.52c3.937-.333 23.673-.237 27.755.134" fill="#66999B" fill-rule="evenodd"/></svg>