<svg width="299" height="194" fill="none" xmlns="http://www.w3.org/2000/svg"><path d="M86.393 188.214a35.91 35.91 0 0 1-24.798-23.613L30.25 68.118a35.825 35.825 0 0 1-1.75-11.644L8.413 70.714c-8.974 6.361-11.11 18.908-4.749 27.883l58.67 82.758c3.886 5.482 10.081 8.412 16.359 8.412 2.605 0 5.225-.516 7.7-1.553ZM24.944 92.269l-7.358-3.539-1.558 1.096 4.103 5.83-3.385 2.381L6.519 83.501l3.384-2.381 4.004 5.691 1.149-.809-.809-7.939 4.193-2.951.126 9.75 10.491 4.512-4.113 2.895Zm33.363-54.286c-10.462 3.4-16.24 14.74-12.841 25.203l31.346 96.477c2.738 8.428 10.629 13.814 19.064 13.814 2.035 0 4.104-.313 6.138-.975l-.114-.018c-12.504-5.467-21.262-17.873-21.262-32.555V38.487c0-2.809.491-5.541 1.087-8.166l-23.418 7.662Zm8.196 26.305-6.09-5.438-1.8.623 2.328 6.736-3.911 1.352-5.805-16.799 3.911-1.351 2.272 6.578 1.327-.459 1.42-7.854 4.846-1.674-2.577 9.402 8.832 7.24-4.753 1.644Z" fill="#424242"/><path d="M96.638 38.487V139.93c0 10.637 8.167 18.961 18.641 19.5-3.04-2.836-5.514-6.213-7.462-10.035-4.372-8.582-5.106-18.334-2.141-27.459l31.368-96.678c.803-2.469 1.877-4.178 3.14-7.178h-23.667c-11 .001-19.879 9.407-19.879 20.407Zm25.688 8.594h-5.029l-3.98-7h-2.678v7h-4v-18h4v7h2.178l3.906-7h5.127l-5.506 8.158 5.982 9.842Z" fill="#424242"/><path d="m152.282 30.405-31.347 96.477c-3.385 10.416 2.332 21.697 12.707 25.15a36.192 36.192 0 0 1-3.504-10.512c-1.616-9.496.549-19.035 6.098-26.859l58.668-82.758a35.702 35.702 0 0 1 6.164-6.676l-23.584-7.664a19.862 19.862 0 0 0-6.138-.975c-8.435.001-16.326 5.39-19.064 13.817Zm21.413 17.057-3.896-1.434.241-3.592-5.258-1.934-2.132 2.896-3.896-1.434 11.521-14.699 4.159 1.529-.739 18.668Z" fill="#424242"/><path d="m170.277 39.142.454-6.61-.067-.025-3.926 5.332 3.539 1.303ZM289.75 74.628 235.84 36.41a19.855 19.855 0 0 0-11.523-3.664c-6.277 0-12.473 2.93-16.359 8.412l-58.668 82.756c-6.362 8.975-4.226 21.521 4.748 27.883l53.909 38.219a19.848 19.848 0 0 0 11.523 3.664c6.278 0 12.473-2.93 16.359-8.412l58.669-82.756c6.362-8.975 4.225-21.522-4.748-27.883Zm-65.061-33.645 3.613 2.566-5.6 17.82-3.385-2.402 1.174-3.404-4.569-3.244-2.816 2.24-3.385-2.404 14.968-11.172Zm16.607 44.454c19.68 48.484-4.809 61.852-16.494 58.135-6.671-2.121-9.644-6.627-10.697-11.742l-7.6 12.607-9.424-6.688 8.971-10.828c-5.023.539-10.114-1.301-14.191-6.729-7.363-9.806-2.826-37.334 49.435-34.755Z" fill="#424242"/><path d="m221.582 52.444 2.169-6.259-.06-.041-5.184 4.117 3.075 2.183Z" fill="#424242"/></svg>