<svg width="30" height="30" viewBox="0 0 50 50" fill="none" xmlns="http://www.w3.org/2000/svg"><path d="M24 .667C11.12.667.667 11.12.667 24 .667 36.88 11.12 47.333 24 47.333c12.88 0 23.333-10.453 23.333-23.333C47.333 11.12 36.88.667 24 .667ZM5.333 24C5.333 13.687 13.687 5.333 24 5.333c4.317 0 8.283 1.47 11.433 3.944L9.277 35.433A18.439 18.439 0 0 1 5.333 24ZM24 42.667c-4.317 0-8.283-1.47-11.433-3.944l26.156-26.156A18.438 18.438 0 0 1 42.667 24c0 10.313-8.354 18.667-18.667 18.667Z" fill="#000"/></svg>