<svg width="1600" height="1200" xmlns="http://www.w3.org/2000/svg"><g fill="none"><path d="M388.249 1000.558c176.598 161.728 428.17 126.235 607.925-63.02 179.754-189.255 143.71-485.362-64.752-607.743-208.46-122.38-438.327-118.03-607.924 63.02C153.9 573.865 211.65 838.83 388.249 1000.558Zm1010.043-850.542c95.287 52.23 213.228 56.872 283.088-29.399 69.86-86.27 56.383-212.98-30.102-283.014-86.485-70.034-206.762-36.837-283.088 29.398-76.325 66.236-65.185 230.784 30.102 283.015Zm352.043 587.038c118.553 96.002 118.64 253.55 40.866 388.443-77.774 134.894-209.781 259.06-301.873 372.783-92.091 113.723-262.304 142.94-388.451 40.789-126.147-102.152-145.806-284.753-40.867-388.444 104.94-103.691 189.61-260.046 301.874-372.782 112.264-112.736 269.898-136.791 388.451-40.79Z" fill="#EFF3F0"/><path d="M162.944 394.698c94.533 76.55 222.9 59.23 296.061-31.118 73.163-90.347 61.357-239.674-31.117-296.06-92.474-56.388-228.67-77.85-296.061 31.117-67.39 108.967-63.415 219.51 31.117 296.06Zm290.075 690.519c29.983 24.28 70.706 18.775 93.922-9.894 23.216-28.67 19.482-76.044-9.85-93.927-29.331-17.882-72.535-24.682-93.922 9.894-21.386 34.577-20.133 69.647 9.85 93.927ZM49.43 113.292c19.69 15.945 46.434 12.33 61.68-6.498 15.247-18.828 12.794-49.94-6.468-61.683-19.263-11.744-47.635-16.21-61.68 6.498-14.045 22.706-13.222 45.738 6.468 61.683Zm537.646 882.644c-11.37 4.254-15.556 16.433-11.144 28.908 4.41 12.474 18.614 17.66 28.94 11.061 10.324-6.599 15.418-17.081 11.143-28.908-4.274-11.826-17.57-15.316-28.94-11.061Z" fill="#E0436B"/><path d="M1247.449 205.509c49.673 40.224 117.14 31.105 155.602-16.392s32.276-125.983-16.318-155.61c-48.594-29.626-120.17-40.89-155.602 16.392-35.431 57.283-33.355 115.385 16.318 155.61ZM511.43 397.292c19.69 15.945 46.434 12.33 61.68-6.498 15.247-18.828 12.794-49.94-6.468-61.683-19.263-11.744-47.635-16.21-61.68 6.498-14.045 22.706-13.222 45.738 6.468 61.683Zm88.038 4.295c8.95 7.248 21.107 5.605 28.037-2.953s5.815-22.7-2.94-28.038c-8.756-5.338-21.653-7.368-28.037 2.953-6.384 10.322-6.01 20.79 2.94 28.038Zm326.843 858.307c32.543 26.353 91.905-6.611 128.411-42.345 36.507-35.734 31.371-99.504-13.858-129.451-45.229-29.948-97.569-26.077-129.504 13.359-31.934 39.436-17.592 132.084 14.951 158.437Z" fill="#7252A4"/><path d="M347.762 826.256c72.02 65.956 174.618 51.48 247.926-25.703 73.309-77.183 58.61-197.943-26.405-247.853-85.016-49.91-178.76-48.134-247.927 25.703s-45.615 181.896 26.406 247.853Zm1073.132-43.298c27.263 24.967 66.1 19.487 93.85-9.73 27.75-29.216 22.186-74.929-9.996-93.821-32.182-18.893-67.668-18.222-93.85 9.729-26.182 27.95-17.267 68.854 9.996 93.822Zm-845.72 90.102c8.952 8.199 21.705 6.4 30.817-3.194 9.112-9.593 7.284-24.603-3.283-30.807-10.567-6.204-22.219-5.983-30.816 3.194-8.597 9.178-5.67 22.61 3.282 30.808Zm915-31c8.952 8.199 21.705 6.4 30.817-3.194 9.112-9.593 7.284-24.603-3.283-30.807-10.567-6.204-22.219-5.983-30.816 3.194-8.597 9.178-5.67 22.61 3.282 30.808Zm-881.087-23.53c4.476 4.1 10.852 3.2 15.408-1.597 4.556-4.797 3.643-12.302-1.64-15.404-5.284-3.101-11.11-2.991-15.41 1.598-4.298 4.589-2.834 11.304 1.642 15.403Z" fill="#F0C933"/><path d="M874.894 559.958c27.263 24.967 66.1 19.487 93.85-9.73 27.75-29.216 22.186-74.929-9.996-93.821-32.182-18.893-67.668-18.222-93.85 9.729-26.182 27.95-17.267 68.854 9.996 93.822Zm-747.72-63.898c8.952 8.199 21.705 6.4 30.817-3.194 9.112-9.593 7.284-24.603-3.283-30.807-10.567-6.204-22.219-5.983-30.816 3.194-8.597 9.178-5.67 22.61 3.282 30.808Zm1256 503c8.952 8.199 21.705 6.4 30.817-3.194 9.112-9.593 7.284-24.603-3.283-30.807-10.567-6.204-22.219-5.983-30.816 3.194-8.597 9.178-5.67 22.61 3.282 30.808ZM859.438 592.023c-6.158 10.461-1.747 22.561 9.531 29.48 11.279 6.918 25.581 2.01 29.452-9.617 3.871-11.626 1.233-22.977-9.532-29.478-10.764-6.501-23.294-.845-29.451 9.615Z" fill="#453264"/><path d="M1541.894 382.958c27.263 24.967 66.1 19.487 93.85-9.73 27.75-29.216 22.186-74.929-9.996-93.821-32.182-18.893-67.668-18.222-93.85 9.729-26.182 27.95-17.267 68.854 9.996 93.822ZM-63.133 1353.312c106.664 86.374 276.922 66.394 385.76-40.19 108.84-106.584 93.731-296.585-40.892-385.686-134.624-89.102-290.528-77.413-385.76 40.19-95.233 117.602-65.77 299.311 40.892 385.686ZM1490.94 370.49c86.485 70.034 86.537 184.98 29.787 283.403-56.75 98.423-153.068 189.023-220.262 272.001-67.195 82.979-191.378 104.308-283.403 29.787-92.025-74.52-106.355-207.743-29.787-283.403 76.568-75.66 138.35-189.741 220.262-272 81.912-82.26 196.918-99.822 283.403-29.788Z" fill="#0F90D1"/><path d="M1056.626 348.682c36.825 33.724 89.284 26.323 126.767-13.142 37.484-39.464 29.967-101.21-13.502-126.73-43.47-25.52-91.402-24.612-126.768 13.142-35.365 37.753-23.323 93.005 13.503 126.73ZM-220.855 1017.32c100.914 92.417 244.67 72.135 347.386-36.01 102.717-108.146 82.12-277.35-37.001-347.283-119.12-69.931-250.473-67.445-347.386 36.012-96.913 103.457-63.912 254.866 37.001 347.282Zm1731 385c100.914 92.417 244.67 72.135 347.386-36.01 102.717-108.146 82.12-277.35-37.001-347.283-119.12-69.931-250.473-67.445-347.386 36.012-96.913 103.457-63.912 254.866 37.001 347.282Z" fill="#C4C8D4"/><path d="M1437.561 250.478c15.538 8.51 34.78 9.25 46.19-4.841 11.412-14.092 9.233-34.77-4.867-46.188-14.1-11.418-33.728-5.981-46.19 4.841-12.463 10.823-10.671 37.678 4.867 46.188Zm-272.87-174.321c9.417 5.158 21.079 5.606 27.994-2.934 6.916-8.54 5.595-21.073-2.95-27.993-8.545-6.92-20.44-3.624-27.994 2.935-7.553 6.559-6.467 22.834 2.95 27.992Z" fill="#EFF3F0"/><path d="M1074.925-252.316c86.485 70.034 99.821 196.918 29.787 283.403-70.034 86.484-162.492 180.003-220.262 272-57.77 91.998-205.427 110.273-283.403 29.787C523.07 252.39 493.16 145.917 571.26 49.471l220.262-272c76.743-94.77 196.918-99.822 283.403-29.787Z" fill="#6759AE"/></g></svg>