<svg width="1600" height="1200" xmlns="http://www.w3.org/2000/svg"><g fill="none"><g transform="translate(240.6 240)"><circle fill="#D33367" cx="120" cy="120" r="120"/><circle fill="#2D374C" cx="120.597" cy="120.597" r="70.448"/><circle fill="#36868E" cx="120.597" cy="120.597" r="37.015"/></g><g transform="translate(720 240)"><circle fill="#FF8B61" cx="120" cy="120" r="120"/><circle fill="#2D374C" cx="120.597" cy="120.597" r="70.448"/><circle fill="#F1E3CF" cx="120.597" cy="120.597" r="37.015"/></g><g transform="matrix(1 0 0 -1 1200 960)"><circle fill="#FF8B61" cx="120" cy="120" r="120"/><circle fill="#2D374C" cx="120.597" cy="120.597" r="70.448"/><circle fill="#F1E3CF" cx="120.597" cy="120.597" r="37.015"/></g><path d="M1081.769 420.737c0 32.567 26.4 58.968 58.968 58.968 32.567 0 58.968-26.4 58.968-58.968 0-32.567-26.4-58.968-58.968-58.968-32.567 0-58.968 26.4-58.968 58.968Z" fill="#D33367"/><path d="M960.295 420.737c0 32.567 26.4 58.968 58.968 58.968 32.567 0 58.968-26.4 58.968-58.968 0-32.567-26.4-58.968-58.968-58.968-32.567 0-58.968 26.4-58.968 58.968Zm121.474-119.115c0 32.567 26.4 58.968 58.968 58.968 32.567 0 58.968-26.401 58.968-58.968 0-32.568-26.4-58.968-58.968-58.968-32.567 0-58.968 26.4-58.968 58.968Z" fill="#FF8B61"/><path d="M960 240v60.147c0 33.219 27.06 60.148 60.442 60.148 33.382 0 60.443-26.93 60.443-60.148S1053.824 240 1020.442 240H960Z" fill="#36868E"/><path fill="#F1E3CF" d="M1381.622 298.968h-122.654v122.654h122.654z"/><path fill="#36868E" d="m1319.397 307.73-52.873 52.873 52.873 52.873 52.873-52.873z"/><path d="M1417.002 262.998h-72.53c0 40.057 32.473 72.53 72.53 72.53v-72.53Zm0 194.004v-72.53c-40.057 0-72.53 32.473-72.53 72.53h72.53Zm-192.235 0h72.53c0-40.057-32.473-72.53-72.53-72.53v72.53Zm0-194.004v72.53c40.057 0 72.53-32.473 72.53-72.53h-72.53Z" fill="#D33367"/><path fill="#2D374C" d="m1560.816 994.684-85.127 85.19 85.127 85.189 85.127-85.19z"/><path fill="#36868E" d="M1591.126 1049.541h-60.62v60.664h60.62z"/><path d="M1080 240c66.274 0 120-53.726 120-120S1146.274 0 1080 0H960v120c0 66.274 53.726 120 120 120Z" fill="#F1E3CF"/><path d="M1031.759 143.518c39.631 0 71.759-32.128 71.759-71.76 0-39.63-32.128-71.758-71.76-71.758H960v71.759c0 39.631 32.128 71.759 71.759 71.759Z" fill="#2D374C"/><path d="M1080 194.472c40.464 0 73.266-32.802 73.266-73.266 0-40.464-32.802-73.266-73.266-73.266-40.464 0-73.266 32.802-73.266 73.266 0 40.464 32.802 73.266 73.266 73.266Z" fill="#36868E"/><path d="M1080 164.095c23.687 0 42.89-19.202 42.89-42.889s-19.203-42.89-42.89-42.89-42.89 19.203-42.89 42.89 19.203 42.89 42.89 42.89Z" fill="#2D374C"/><path d="M1200 120.603V240h119.397C1386.004 240 1440 186.004 1440 119.397V0h-119.397C1253.996 0 1200 53.996 1200 120.603Z" fill="#36868E"/><path d="M1251.86 120c0 38.965 31.587 70.553 70.552 70.553s70.553-31.588 70.553-70.553V49.447h-70.553c-38.965 0-70.553 31.588-70.553 70.553Z" fill="#2D374C"/><path d="M1200 192.603v48h48c39.765 0 72-32.235 72-72v-48h-48c-39.765 0-72 32.236-72 72Z" fill="#FF8B61"/><path d="M1680 120.603V240h-119.397C1493.996 240 1440 186.004 1440 119.397V0h119.397C1626.004 0 1680 53.996 1680 120.603Z" fill="#D33367"/><path d="M1628.14 120c0 38.965-31.587 70.553-70.552 70.553s-70.553-31.588-70.553-70.553V49.447h70.553c38.965 0 70.553 31.588 70.553 70.553Z" fill="#2D374C"/><path d="M1680 192.603v48h-48c-39.765 0-72-32.235-72-72v-48h48c39.765 0 72 32.236 72 72Z" fill="#FF8B61"/><path d="M1560 720c-66.274 0-120 53.726-120 120s53.726 120 120 120h120V840c0-66.274-53.726-120-120-120Z" fill="#F1E3CF"/><path d="M1608.241 816.482c-39.631 0-71.759 32.128-71.759 71.76 0 39.63 32.128 71.758 71.76 71.758H1680v-71.759c0-39.631-32.128-71.759-71.759-71.759Z" fill="#D33367"/><path d="M1560 765.528c-40.464 0-73.266 32.802-73.266 73.266 0 40.464 32.802 73.266 73.266 73.266 40.464 0 73.266-32.802 73.266-73.266 0-40.464-32.802-73.266-73.266-73.266Z" fill="#36868E"/><path d="M1560 795.905c-23.687 0-42.89 19.202-42.89 42.889s19.203 42.89 42.89 42.89 42.89-19.203 42.89-42.89-19.203-42.89-42.89-42.89Z" fill="#2D374C"/><g transform="translate(240 480)"><ellipse fill="#F1E3CF" cx="120.295" cy="119.704" rx="100.835" ry="100.788"/><path d="M240 0c0 65.948-53.33 119.409-119.115 119.409C120.885 53.46 174.215 0 240 0Z" fill="#D33367"/><path d="M119.115 115.93v3.479h-3.469C51.776 119.409 0 67.505 0 3.478V0h3.47c63.869 0 115.645 51.904 115.645 115.93Z" fill="#36868E"/><path d="M115.646 120.591h3.47v3.478C119.115 188.096 67.338 240 3.468 240H0v-3.478c0-64.027 51.777-115.93 115.646-115.93Z" fill="#D33367"/><path d="M240 236.522V240h-3.47c-63.869 0-115.645-51.904-115.645-115.93v-3.479h3.469c63.87 0 115.646 51.904 115.646 115.931Z" fill="#36868E"/></g><g transform="translate(960 480)"><circle fill="#F1E3CF" cx="120.035" cy="119.435" r="100.835"/><path d="M116.505 240C52.16 240 0 187.839 0 123.495V120h3.495C67.84 120 120 172.161 120 236.505V240h-3.495Z" fill="#D33367"/><path d="M236.505 120H240v3.495C240 187.84 187.839 240 123.495 240H120v-3.495C120 172.16 172.161 120 236.505 120Z" fill="#36868E"/><path d="M123.495 120H120v-3.495C120 52.16 172.161 0 236.505 0H240v3.495C240 67.84 187.839 120 123.495 120Z" fill="#D33367"/><path d="M3.495 0C67.84 0 120 52.161 120 116.505V120h-3.495C52.16 120 0 67.839 0 3.495V0h3.495Z" fill="#36868E"/></g><g transform="rotate(90 -240 480)"><circle fill="#F1E3CF" cx="120.035" cy="119.435" r="100.835"/><path d="M116.505 240C52.16 240 0 187.839 0 123.495V120h3.495C67.84 120 120 172.161 120 236.505V240h-3.495Z" fill="#D33367"/><path d="M236.505 120H240v3.495C240 187.84 187.839 240 123.495 240H120v-3.495C120 172.16 172.161 120 236.505 120Z" fill="#36868E"/><path d="M123.495 120H120v-3.495C120 52.16 172.161 0 236.505 0H240v3.495C240 67.84 187.839 120 123.495 120Z" fill="#D33367"/><path d="M3.495 0C67.84 0 120 52.161 120 116.505V120h-3.495C52.16 120 0 67.839 0 3.495V0h3.495Z" fill="#36868E"/></g><path d="M720 0v240H480C480 107.452 587.452 0 720 0Z" fill="#D33367"/><path d="M720 103.784V240H583.448c0-75.23 61.137-136.216 136.552-136.216Z" fill="#F1E3CF"/><path d="M720 177.494V240h-62.66c0-34.521 28.054-62.506 62.66-62.506Z" fill="#2D374C"/><path d="M1680 720h-240V480c132.548 0 240 107.452 240 240Z" fill="#D33367"/><path d="M1576.216 720H1440V583.448c75.23 0 136.216 61.137 136.216 136.552Z" fill="#F1E3CF"/><path d="M1502.506 720H1440v-62.66c34.521 0 62.506 28.054 62.506 62.66Z" fill="#2D374C"/><path d="M0 720V480h240c0 132.548-107.452 240-240 240Z" fill="#36868E"/><path d="M0 616.552V480h136.216c0 75.415-60.986 136.552-136.216 136.552Z" fill="#F1E3CF"/><path d="M0 542.66V480h62.506c0 34.606-27.985 62.66-62.506 62.66Z" fill="#2D374C"/><path d="M1440 480v240h-240c0-132.548 107.452-240 240-240Z" fill="#36868E"/><path d="M1440 583.448V720h-136.216c0-75.415 60.986-136.552 136.216-136.552Z" fill="#F1E3CF"/><path d="M1440 657.34V720h-62.506c0-34.606 27.985-62.66 62.506-62.66Z" fill="#2D374C"/><path d="M120.6 0c66.274 0 120 53.726 120 120s-53.726 120-120 120S.6 186.274.6 120 54.326 0 120.6 0Z" fill="#36868E"/><path d="M121.19 48.354c39.894 0 72.236 32.34 72.236 72.236 0 39.894-32.342 72.236-72.236 72.236-39.895 0-72.236-32.342-72.236-72.236 0-39.895 32.34-72.236 72.236-72.236Z" fill="#F1E3CF"/><path d="M122.369 83.145c21.332 0 38.624 17.293 38.624 38.624 0 21.332-17.292 38.624-38.624 38.624-21.331 0-38.624-17.292-38.624-38.624 0-21.331 17.293-38.624 38.624-38.624Z" fill="#2D374C"/><path d="M240.6 94.349V240H94.949c0-80.44 65.21-145.651 145.651-145.651Z" fill="#D33367"/><path d="M1320 960c66.274 0 120 53.726 120 120s-53.726 120-120 120-120-53.726-120-120 53.726-120 120-120Z" fill="#36868E"/><path d="M1320.59 1008.354c39.894 0 72.236 32.34 72.236 72.236 0 39.894-32.342 72.236-72.236 72.236-39.895 0-72.236-32.342-72.236-72.236 0-39.895 32.34-72.236 72.236-72.236Z" fill="#F1E3CF"/><path d="M1321.769 1043.145c21.332 0 38.624 17.293 38.624 38.624 0 21.332-17.292 38.624-38.624 38.624-21.331 0-38.624-17.292-38.624-38.624 0-21.331 17.293-38.624 38.624-38.624Z" fill="#2D374C"/><path d="M1440 1054.349V1200h-145.651c0-80.44 65.21-145.651 145.651-145.651Z" fill="#D33367"/><path d="M299.568 117.336c-32.567 0-58.968-26.4-58.968-58.968C240.6 25.801 267-.6 299.568-.6c32.567 0 58.968 26.4 58.968 58.968 0 32.567-26.4 58.968-58.968 58.968Z" fill="#FF8B61"/><path d="M299.568 239.4c-32.567 0-58.968-26.4-58.968-58.968 0-32.567 26.4-58.968 58.968-58.968 32.567 0 58.968 26.4 58.968 58.968 0 32.567-26.4 58.968-58.968 58.968Zm119.705-122.064c-32.567 0-58.968-26.4-58.968-58.968 0-32.567 26.401-58.968 58.968-58.968 32.567 0 58.968 26.4 58.968 58.968 0 32.567-26.4 58.968-58.968 58.968Z" fill="#D33367"/><path d="M480.6 239.4h-60.442c-33.382 0-60.443-27.06-60.443-60.442 0-33.382 27.061-60.443 60.443-60.443 33.381 0 60.442 27.061 60.442 60.443V239.4Z" fill="#36868E"/><path d="M601.769 779.263c0-32.567 26.4-58.968 58.968-58.968 32.567 0 58.968 26.4 58.968 58.968 0 32.567-26.4 58.968-58.968 58.968-32.567 0-58.968-26.4-58.968-58.968Z" fill="#D33367"/><path d="M480.295 779.263c0-32.567 26.4-58.968 58.968-58.968 32.567 0 58.968 26.4 58.968 58.968 0 32.567-26.4 58.968-58.968 58.968-32.567 0-58.968-26.4-58.968-58.968Zm121.474 119.115c0-32.567 26.4-58.968 58.968-58.968 32.567 0 58.968 26.401 58.968 58.968 0 32.568-26.4 58.968-58.968 58.968-32.567 0-58.968-26.4-58.968-58.968Z" fill="#FF8B61"/><path d="M480 960v-60.147c0-33.219 27.06-60.148 60.442-60.148 33.382 0 60.443 26.93 60.443 60.148S573.824 960 540.442 960H480Z" fill="#36868E"/><path d="M58.968 1077.936c-32.567 0-58.968-26.4-58.968-58.968C0 986.401 26.4 960 58.968 960c32.567 0 58.968 26.4 58.968 58.968 0 32.567-26.4 58.968-58.968 58.968Z" fill="#D33367"/><path d="M58.968 1200C26.401 1200 0 1173.6 0 1141.032c0-32.567 26.4-58.968 58.968-58.968 32.567 0 58.968 26.4 58.968 58.968 0 32.567-26.4 58.968-58.968 58.968Zm119.705-122.064c-32.567 0-58.968-26.4-58.968-58.968 0-32.567 26.401-58.968 58.968-58.968 32.567 0 58.968 26.4 58.968 58.968 0 32.567-26.4 58.968-58.968 58.968Z" fill="#FF8B61"/><path d="M240 1200h-60.442c-33.382 0-60.443-27.06-60.443-60.442 0-33.382 27.061-60.443 60.443-60.443 33.381 0 60.442 27.061 60.442 60.443V1200Z" fill="#36868E"/><path fill="#F1E3CF" d="M901.622 901.032H778.968V778.378h122.654z"/><path fill="#36868E" d="m839.397 892.27-52.873-52.873 52.873-52.873 52.873 52.873z"/><path d="M937.002 937.002h-72.53c0-40.057 32.473-72.53 72.53-72.53v72.53Zm0-194.004v72.53c-40.057 0-72.53-32.473-72.53-72.53h72.53Zm-192.235 0h72.53c0 40.057-32.473 72.53-72.53 72.53v-72.53Zm0 194.004v-72.53c40.057 0 72.53 32.473 72.53 72.53h-72.53Z" fill="#D33367"/><path fill="#FF8B61" d="M120.817 445.316 35.69 360.127l85.127-85.188 85.126 85.188z"/><path fill="#F1E3CF" d="m120.817 403.023-42.864-42.896 42.864-42.895 42.864 42.895zm707.726-293.274h-74.774V34.975h74.774zm0 94.07h-74.774v-74.774h74.774zm96.482-94.07h-74.774V34.975h74.774zm0 94.07h-74.774v-74.774h74.774z"/><path fill="#2D374C" d="M808.04 89.246h-34.975V54.271h34.975zm0 94.071h-34.975v-34.975h34.975zm96.483-94.071h-34.975V54.271h34.975zm0 94.071h-34.975v-34.975h34.975zM601.416 685.316l-85.127-85.19 85.127-85.189 85.127 85.19z"/><path fill="#36868E" d="M631.726 630.459h-60.62v-60.664h60.62z"/><path d="M600 960c66.274 0 120 53.726 120 120s-53.726 120-120 120H480v-120c0-66.274 53.726-120 120-120Z" fill="#F1E3CF"/><path d="M551.759 1056.482c39.631 0 71.759 32.128 71.759 71.76 0 39.63-32.128 71.758-71.76 71.758H480v-71.759c0-39.631 32.128-71.759 71.759-71.759Z" fill="#2D374C"/><path d="M600 1005.528c40.464 0 73.266 32.802 73.266 73.266 0 40.464-32.802 73.266-73.266 73.266-40.464 0-73.266-32.802-73.266-73.266 0-40.464 32.802-73.266 73.266-73.266Z" fill="#36868E"/><path d="M600 1035.905c23.687 0 42.89 19.202 42.89 42.889s-19.203 42.89-42.89 42.89-42.89-19.203-42.89-42.89 19.203-42.89 42.89-42.89Z" fill="#2D374C"/><path d="M360 720h120v120c0 66.274-53.726 120-120 120H240V840c0-66.274 53.726-120 120-120Z" fill="#36868E"/><path d="M360 771.86c38.965 0 70.553 31.587 70.553 70.552S398.965 912.965 360 912.965h-70.553v-70.553c0-38.965 31.588-70.553 70.553-70.553Z" fill="#2D374C"/><path d="M432.603 720h48v48c0 39.765-32.235 72-72 72h-48v-48c0-39.765 32.236-72 72-72Z" fill="#F1E3CF"/><path d="M720 1079.397V960h119.397C906.004 960 960 1013.996 960 1080.603V1200H840.603C773.996 1200 720 1146.004 720 1079.397Z" fill="#36868E"/><path d="M771.86 1080c0-38.965 31.587-70.553 70.552-70.553s70.553 31.588 70.553 70.553v70.553h-70.553c-38.965 0-70.553-31.588-70.553-70.553Z" fill="#2D374C"/><path d="M720 1007.397v-48h48c39.765 0 72 32.235 72 72v48h-48c-39.765 0-72-32.236-72-72Z" fill="#FF8B61"/><path d="M840 720c-66.274 0-120-53.726-120-120s53.726-120 120-120h120v120c0 66.274-53.726 120-120 120Z" fill="#F1E3CF"/><path d="M888.241 623.518c-39.631 0-71.759-32.128-71.759-71.76 0-39.63 32.128-71.758 71.76-71.758H960v71.759c0 39.631-32.128 71.759-71.759 71.759Z" fill="#D33367"/><path d="M840 674.472c-40.464 0-73.266-32.802-73.266-73.266 0-40.464 32.802-73.266 73.266-73.266 40.464 0 73.266 32.802 73.266 73.266 0 40.464-32.802 73.266-73.266 73.266Z" fill="#36868E"/><path d="M840 644.095c-23.687 0-42.89-19.202-42.89-42.889s19.203-42.89 42.89-42.89 42.89 19.203 42.89 42.89-19.203 42.89-42.89 42.89Z" fill="#2D374C"/><g transform="translate(1440 240)"><ellipse fill="#F1E3CF" cx="120.295" cy="119.704" rx="100.835" ry="100.788"/><path d="M240 0c0 65.948-53.33 119.409-119.115 119.409C120.885 53.46 174.215 0 240 0Z" fill="#D33367"/><path d="M119.115 115.93v3.479h-3.469C51.776 119.409 0 67.505 0 3.478V0h3.47c63.869 0 115.645 51.904 115.645 115.93Z" fill="#36868E"/><path d="M115.646 120.591h3.47v3.478C119.115 188.096 67.338 240 3.468 240H0v-3.478c0-64.027 51.777-115.93 115.646-115.93Z" fill="#D33367"/><path d="M240 236.522V240h-3.47c-63.869 0-115.645-51.904-115.645-115.93v-3.479h3.469c63.87 0 115.646 51.904 115.646 115.931Z" fill="#36868E"/></g><path fill="#FF8B61" d="M539.4 240h121.2L600 300.6z"/><path fill="#36868E" d="M720 240v240H480z"/><path fill="#F1E3CF" d="m480 240 240 240H480z"/><path fill="#36868E" d="M420.6 1200H299.4l60.6-60.6z"/><path fill="#F1E3CF" d="M240 1200V960h240z"/><path fill="#D33367" d="M480 1200 240 960h240z"/><path fill="#FF8B61" d="M1141.2 960H1020l60.6-60.6z"/><path fill="#36868E" d="M960.6 960V720h240z"/><path fill="#F1E3CF" d="m1200.6 960-240-240h240z"/><path fill="#FF8B61" d="M1020 960h121.2l-60.6 60.6z"/><path fill="#36868E" d="M1200.6 960v240h-240z"/><path fill="#F1E3CF" d="m960.6 960 240 240h-240z"/></g></svg>