<svg width="79" height="79" viewBox="0 0 79 79" fill="none" xmlns="http://www.w3.org/2000/svg">
<g filter="url(#filter0_d)">
<path d="M4 35.3553L39.3553 8.22544e-06L74.7107 35.3553L39.3553 70.7107L4 35.3553Z" fill="#FFC482"/>
</g>
<g filter="url(#filter1_d)">
<path d="M42.7753 35.3553L42.9193 23.6553L42.7753 10.2273C42.7753 10.2273 43.0513 10.2033 43.6033 10.1553C44.1553 10.1073 44.8753 10.0473 45.7633 9.97533C46.6753 9.90333 47.6473 9.84333 48.6793 9.79533C49.7353 9.74733 50.7553 9.72333 51.7393 9.72333C54.0913 9.72333 55.9153 10.4433 57.2113 11.8833C58.5073 13.3233 59.1553 15.4833 59.1553 18.3633C59.1553 20.1633 58.9153 21.6513 58.4353 22.8273C57.9793 23.9793 57.3553 24.8913 56.5633 25.5633C55.7953 26.2113 54.9313 26.6793 53.9713 26.9673C53.0113 27.2313 52.0153 27.3633 50.9833 27.3633C50.1433 27.3633 49.3273 27.3393 48.5353 27.2913C47.7433 27.2433 47.2273 27.2073 46.9873 27.1833V35.3553H42.7753ZM51.1633 23.9073C52.5073 23.9073 53.3953 23.7033 53.8273 23.2953C54.1633 22.9593 54.4033 22.3593 54.5473 21.4953C54.6913 20.6313 54.7633 19.4793 54.7633 18.0393C54.7633 16.8633 54.7033 15.9753 54.5833 15.3753C54.4633 14.7753 54.3193 14.3553 54.1513 14.1153C54.0073 13.8513 53.8633 13.6593 53.7193 13.5393C53.5273 13.3953 53.1793 13.2753 52.6753 13.1793C52.1953 13.0593 51.6073 12.9993 50.9113 12.9993C50.1433 12.9993 49.3993 13.0353 48.6793 13.1073C47.9833 13.1793 47.4193 13.2513 46.9873 13.3233V23.5473C47.1793 23.5953 47.6713 23.6673 48.4633 23.7633C49.2793 23.8593 50.1793 23.9073 51.1633 23.9073Z" fill="#66999B"/>
</g>
<g filter="url(#filter2_d)">
<path d="M23.7753 59.3553L23.9193 47.6553L23.7753 34.2273C23.7753 34.2273 24.0513 34.2033 24.6033 34.1553C25.1553 34.1073 25.8753 34.0473 26.7633 33.9753C27.6753 33.9033 28.6473 33.8433 29.6793 33.7953C30.7353 33.7473 31.7553 33.7233 32.7393 33.7233C35.0913 33.7233 36.9153 34.4433 38.2113 35.8833C39.5073 37.3233 40.1553 39.4833 40.1553 42.3633C40.1553 44.1633 39.9153 45.6513 39.4353 46.8273C38.9793 47.9793 38.3553 48.8913 37.5633 49.5633C36.7953 50.2113 35.9313 50.6793 34.9713 50.9673C34.0113 51.2313 33.0153 51.3633 31.9833 51.3633C31.1433 51.3633 30.3273 51.3393 29.5353 51.2913C28.7433 51.2433 28.2273 51.2073 27.9873 51.1833V59.3553H23.7753ZM32.1633 47.9073C33.5073 47.9073 34.3953 47.7033 34.8273 47.2953C35.1633 46.9593 35.4033 46.3593 35.5473 45.4953C35.6913 44.6313 35.7633 43.4793 35.7633 42.0393C35.7633 40.8633 35.7033 39.9753 35.5833 39.3753C35.4633 38.7753 35.3193 38.3553 35.1513 38.1153C35.0073 37.8513 34.8633 37.6593 34.7193 37.5393C34.5273 37.3953 34.1793 37.2753 33.6753 37.1793C33.1953 37.0593 32.6073 36.9993 31.9113 36.9993C31.1433 36.9993 30.3993 37.0353 29.6793 37.1073C28.9833 37.1793 28.4193 37.2513 27.9873 37.3233V47.5473C28.1793 47.5953 28.6713 47.6673 29.4633 47.7633C30.2793 47.8593 31.1793 47.9073 32.1633 47.9073Z" fill="white"/>
</g>
<defs>
<filter id="filter0_d" x="0" y="0" width="78.7107" height="78.7107" filterUnits="userSpaceOnUse" color-interpolation-filters="sRGB">
<feFlood flood-opacity="0" result="BackgroundImageFix"/>
<feColorMatrix in="SourceAlpha" type="matrix" values="0 0 0 0 0 0 0 0 0 0 0 0 0 0 0 0 0 0 127 0" result="hardAlpha"/>
<feOffset dy="4"/>
<feGaussianBlur stdDeviation="2"/>
<feComposite in2="hardAlpha" operator="out"/>
<feColorMatrix type="matrix" values="0 0 0 0 0 0 0 0 0 0 0 0 0 0 0 0 0 0 0.25 0"/>
<feBlend mode="normal" in2="BackgroundImageFix" result="effect1_dropShadow"/>
<feBlend mode="normal" in="SourceGraphic" in2="effect1_dropShadow" result="shape"/>
</filter>
<filter id="filter1_d" x="38.7753" y="9.72333" width="24.38" height="33.632" filterUnits="userSpaceOnUse" color-interpolation-filters="sRGB">
<feFlood flood-opacity="0" result="BackgroundImageFix"/>
<feColorMatrix in="SourceAlpha" type="matrix" values="0 0 0 0 0 0 0 0 0 0 0 0 0 0 0 0 0 0 127 0" result="hardAlpha"/>
<feOffset dy="4"/>
<feGaussianBlur stdDeviation="2"/>
<feComposite in2="hardAlpha" operator="out"/>
<feColorMatrix type="matrix" values="0 0 0 0 0 0 0 0 0 0 0 0 0 0 0 0 0 0 0.25 0"/>
<feBlend mode="normal" in2="BackgroundImageFix" result="effect1_dropShadow"/>
<feBlend mode="normal" in="SourceGraphic" in2="effect1_dropShadow" result="shape"/>
</filter>
<filter id="filter2_d" x="19.7753" y="33.7233" width="24.38" height="33.632" filterUnits="userSpaceOnUse" color-interpolation-filters="sRGB">
<feFlood flood-opacity="0" result="BackgroundImageFix"/>
<feColorMatrix in="SourceAlpha" type="matrix" values="0 0 0 0 0 0 0 0 0 0 0 0 0 0 0 0 0 0 127 0" result="hardAlpha"/>
<feOffset dy="4"/>
<feGaussianBlur stdDeviation="2"/>
<feComposite in2="hardAlpha" operator="out"/>
<feColorMatrix type="matrix" values="0 0 0 0 0 0 0 0 0 0 0 0 0 0 0 0 0 0 0.25 0"/>
<feBlend mode="normal" in2="BackgroundImageFix" result="effect1_dropShadow"/>
<feBlend mode="normal" in="SourceGraphic" in2="effect1_dropShadow" result="shape"/>
</filter>
</defs>
</svg>
